<?xml version="1.0" encoding="UTF-8"?>
<svg id="Ebene_1" data-name="Ebene 1" xmlns="http://www.w3.org/2000/svg" viewBox="0 0 704.52 366.93">
  <defs>
    <style>
      .cls-1 {
        fill: #d9b635;
      }

      .cls-2 {
        fill: #fff;
      }

      .cls-3 {
        fill: #8a7b70;
      }
    </style>
  </defs>
  <path class="cls-3" d="M79.44,9.63h545.63c37.14,0,67.29,30.15,67.29,67.29v213.09c0,37.14-30.15,67.29-67.29,67.29H79.44c-37.14,0-67.29-30.15-67.29-67.29V76.92C12.15,39.78,42.3,9.63,79.44,9.63Z"/>
  <g>
    <path class="cls-2" d="M305.79,137.49c6.01,0,9.03-2.19,9.03-6.57,0-2-.72-3.63-2.19-4.84-1.47-1.2-3.39-1.79-5.8-1.79h-9.97v13.2h8.92ZM296.86,108.92v12.16h8.87c4.73,0,7.43-2.22,7.43-6.09.03-4.04-2.46-6.07-7.43-6.07h-8.87ZM318.8,131.13c0,2.97-1.2,5.34-3.58,7.13-2.38,1.82-5.53,2.73-9.43,2.73h-12.85v-35.57h12.29c7.94,0,11.92,3.15,11.95,9.46,0,3.37-1.58,5.88-4.76,7.51,3.95,1.47,6.39,4.68,6.39,8.74"/>
    <path class="cls-2" d="M340.55,136.15c1.85-1.34,2.78-3.07,2.78-5.24v-1.68c-2.91-1.5-5.71-2.25-8.42-2.25-2.32,0-4.2.54-5.61,1.6-1.42,1.1-2.11,2.51-2.11,4.25,0,1.6.64,2.89,1.92,3.85,1.25.99,2.96,1.47,5.08,1.47,2.37,0,4.49-.67,6.35-2.01M349.42,138.02l.64,2.59-.16.32c-.48.48-1.28.72-2.4.72-2.48,0-4.04-1.68-4.17-4.33-2.48,2.89-5.64,4.33-9.46,4.33-3.18,0-5.72-.83-7.67-2.48-1.95-1.63-2.94-3.79-2.94-6.44s1.07-4.95,3.21-6.63c2.11-1.69,4.92-2.52,8.39-2.52,2.89,0,5.72.7,8.47,2.09v-2.38c0-2.06-.69-3.71-2.11-4.97-1.42-1.26-3.31-1.87-5.66-1.87-3.23,0-6.09,1.02-8.58,3.07h-.27l-1.77-2.51v-.27c1.31-1.12,2.94-2.03,4.89-2.75,1.92-.7,3.82-1.04,5.72-1.04,7.46,0,11.52,4.03,11.52,11.17v12.75c0,.93.38,1.42,1.15,1.44.32,0,.61-.13.86-.4l.35.1Z"/>
    <path class="cls-2" d="M371.05,114l-1.31,3.12-.26.11c-.67-.45-1.61-.67-2.86-.64-1.98,0-3.55.83-4.73,2.48-1.17,1.65-1.76,3.77-1.76,6.3v15.61h-3.85v-23.25c0-.94-.38-1.42-1.15-1.44-.32,0-.61.13-.88.4l-.32-.11-.64-2.59.16-.32c.48-.48,1.28-.72,2.4-.72,2.43,0,3.98,1.63,4.22,4.11,1.68-2.75,4.06-4.11,7.16-4.11,1.31,0,2.54.27,3.66.77l.16.27Z"/>
    <path class="cls-2" d="M396.47,135.03c1.87-2.08,2.81-4.65,2.81-7.72s-.94-5.64-2.81-7.72c-1.9-2.08-4.38-3.13-7.48-3.13-2.89,0-5.29.94-7.21,2.81-1.95,1.9-2.91,4.57-2.91,8.04s.96,6.15,2.91,8.02c1.92,1.9,4.33,2.83,7.21,2.83,3.1,0,5.58-1.04,7.48-3.13M379.29,117.24c2.67-2.86,6.04-4.27,10.07-4.27s7.38,1.39,9.97,4.14c2.59,2.75,3.88,6.17,3.88,10.21s-1.28,7.46-3.88,10.21c-2.59,2.75-5.93,4.14-9.97,4.14s-7.43-1.42-10.07-4.27v3.61h-3.83v-36.82l3.55-.51.27.21v13.36Z"/>
    <path class="cls-2" d="M429.23,135.32c1.92-1.87,2.89-4.54,2.89-8.02s-.96-6.15-2.89-8.04c-1.95-1.87-4.35-2.81-7.24-2.81-3.1,0-5.59,1.04-7.45,3.13-1.9,2.08-2.84,4.65-2.84,7.72s.94,5.64,2.84,7.72c1.87,2.09,4.35,3.13,7.45,3.13,2.89,0,5.29-.94,7.24-2.83M437.86,138.02l.67,2.59-.16.32c-.48.48-1.28.72-2.4.72-2.48,0-4.14-1.76-4.27-4.43-2.6,2.96-5.93,4.43-10.08,4.43s-7.35-1.39-9.94-4.14c-2.6-2.75-3.9-6.17-3.9-10.21s1.31-7.46,3.9-10.21c2.59-2.75,5.9-4.14,9.94-4.14s7.4,1.42,10.08,4.27v-3.61h3.82v23.25c0,.93.38,1.42,1.15,1.44.32,0,.62-.13.88-.4l.32.1Z"/>
    <path class="cls-2" d="M459.99,114l-1.31,3.12-.27.11c-.67-.45-1.6-.67-2.86-.64-1.98,0-3.55.83-4.73,2.48-1.18,1.65-1.77,3.77-1.77,6.3v15.61h-3.85v-23.25c0-.94-.37-1.42-1.15-1.44-.32,0-.62.13-.88.4l-.32-.11-.64-2.59.16-.32c.48-.48,1.28-.72,2.41-.72,2.43,0,3.98,1.63,4.22,4.11,1.69-2.75,4.06-4.11,7.17-4.11,1.31,0,2.54.27,3.66.77l.16.27Z"/>
    <path class="cls-2" d="M478.66,136.15c1.84-1.34,2.78-3.07,2.78-5.24v-1.68c-2.91-1.5-5.72-2.25-8.42-2.25-2.32,0-4.19.54-5.61,1.6-1.42,1.1-2.12,2.51-2.12,4.25,0,1.6.64,2.89,1.92,3.85,1.26.99,2.97,1.47,5.08,1.47,2.38,0,4.49-.67,6.36-2.01M487.53,138.02l.64,2.59-.16.32c-.49.48-1.28.72-2.41.72-2.48,0-4.03-1.68-4.17-4.33-2.48,2.89-5.64,4.33-9.46,4.33-3.18,0-5.72-.83-7.67-2.48-1.95-1.63-2.94-3.79-2.94-6.44s1.07-4.95,3.21-6.63c2.11-1.69,4.91-2.52,8.39-2.52,2.88,0,5.72.7,8.47,2.09v-2.38c0-2.06-.69-3.71-2.11-4.97-1.42-1.26-3.31-1.87-5.67-1.87-3.23,0-6.09,1.02-8.58,3.07h-.27l-1.76-2.51v-.27c1.31-1.12,2.94-2.03,4.89-2.75,1.92-.7,3.82-1.04,5.72-1.04,7.45,0,11.52,4.03,11.52,11.17v12.75c0,.93.38,1.42,1.15,1.44.32,0,.62-.13.86-.4l.35.1Z"/>
    <polygon class="cls-2" points="319.23 152.45 329 152.45 329 193.1 319.23 193.1 319.23 176.76 302.28 176.76 302.28 193.1 292.53 193.1 292.53 152.45 302.28 152.45 302.28 168.76 319.23 168.76 319.23 152.45"/>
    <g>
      <path class="cls-2" d="M352.38,185.59c2.23,0,4.09-.76,5.55-2.32,1.47-1.53,2.2-3.45,2.2-5.8s-.73-4.27-2.2-5.83c-1.46-1.53-3.33-2.29-5.55-2.29s-4.13.76-5.56,2.29c-1.47,1.56-2.2,3.48-2.2,5.83s.73,4.34,2.2,5.83c1.43,1.53,3.3,2.29,5.56,2.29M352.38,193.86c-5.01,0-9.16-1.56-12.43-4.67-3.27-3.11-4.92-7.03-4.92-11.73s1.65-8.61,4.92-11.73c3.27-3.12,7.42-4.67,12.43-4.67s9.13,1.56,12.4,4.67c3.24,3.11,4.86,7.02,4.86,11.73s-1.62,8.61-4.86,11.73c-3.27,3.11-7.39,4.67-12.4,4.67"/>
      <path class="cls-2" d="M424.51,164.76c2.38,2.47,3.57,5.74,3.57,9.83v18.51h-9.62v-17.84c0-3.66-2.01-5.98-5.44-5.98s-5.71,2.41-5.71,5.98v17.84h-9.68v-17.84c0-3.66-2.11-5.98-5.43-5.98-1.71,0-3.09.55-4.15,1.65-1.07,1.1-1.62,2.54-1.62,4.33v17.84h-9.62v-21.9c0-1.13-.43-1.68-1.25-1.68-.33,0-.64.09-.95.31l-.67-.37-1.01-6.38.43-.7c1.25-.89,2.78-1.31,4.58-1.31,3.57,0,5.96,1.49,7.12,4.52,2.47-2.99,5.71-4.49,9.71-4.52,4.3,0,7.57,1.49,9.86,4.52,2.66-3.03,6.17-4.52,10.5-4.52,3.88,0,7,1.22,9.38,3.69"/>
      <path class="cls-2" d="M484.59,164.76c2.38,2.47,3.57,5.74,3.57,9.83v18.51h-9.62v-17.84c0-3.66-2.02-5.98-5.43-5.98s-5.71,2.41-5.71,5.98v17.84h-9.68v-17.84c0-3.66-2.11-5.98-5.44-5.98-1.71,0-3.08.55-4.15,1.65-1.07,1.1-1.62,2.54-1.62,4.33v17.84h-9.62v-21.9c0-1.13-.43-1.68-1.25-1.68-.34,0-.64.09-.95.31l-.67-.37-1.01-6.38.43-.7c1.25-.89,2.78-1.31,4.58-1.31,3.57,0,5.95,1.49,7.12,4.52,2.48-2.99,5.71-4.49,9.71-4.52,4.31,0,7.58,1.49,9.86,4.52,2.66-3.03,6.17-4.52,10.51-4.52,3.88,0,6.99,1.22,9.38,3.69"/>
      <path class="cls-2" d="M503.18,174.07h13.93c-.24-1.74-.89-3.15-1.92-4.18-1.25-1.32-2.93-1.99-5.01-1.99-3.82,0-6.5,2.41-6.99,6.17M503.12,179.6c.21,2.29,1.07,4.06,2.62,5.28,1.56,1.22,3.45,1.83,5.68,1.83,3.58,0,6.48-1.16,8.64-3.45h.67l4.34,4.15v.74c-1.62,1.92-3.73,3.33-6.26,4.27-2.53.98-5.16,1.43-7.82,1.43-4.98,0-9.07-1.53-12.34-4.55-3.27-3.02-4.92-6.93-4.92-11.79s1.56-8.67,4.7-11.79c3.11-3.11,7.11-4.67,11.97-4.67s8.46,1.47,11.51,4.4c3.05,3.05,4.58,6.93,4.58,11.64,0,.92-.06,1.74-.18,2.5h-23.21Z"/>
      <path class="cls-2" d="M535.48,192.34c-2.53-1.04-4.49-2.44-5.92-4.18v-.67l4.3-4.83h.7c.95,1.13,2.29,2.08,4,2.84s3.39,1.16,5.07,1.16c2.23,0,3.76-1.01,3.76-2.44,0-1.25-1.22-2.2-2.29-2.66-.52-.21-1.35-.52-2.41-.92-1.34-.4-2.42-.77-3.21-1.07-.83-.28-1.8-.73-2.96-1.34-1.19-.58-2.07-1.22-2.72-1.86-1.28-1.31-2.44-3.36-2.44-5.83,0-2.9,1.13-5.22,3.42-6.96,2.29-1.71,5.35-2.57,9.16-2.57,2.62,0,5.1.46,7.39,1.41,2.29.94,4,2.2,5.19,3.73v.7l-4.28,4.49h-.67c-2.29-2.23-4.85-3.33-7.63-3.3-1.99,0-3.36.89-3.36,2.11,0,.49.18.92.67,1.28.49.4.86.64,1.77,1.01.92.36,1.38.55,2.66,1.01.64.21,1.13.43,1.53.58,3.08,1.19,5.44,2.53,6.99,4.03,1.56,1.5,2.32,3.6,2.32,6.35s-1.19,5.16-3.57,6.9c-2.38,1.74-5.5,2.63-9.38,2.63-2.87,0-5.56-.52-8.09-1.59"/>
    </g>
  </g>
  <g>
    <path class="cls-2" d="M305.1,256.18c0,3.66-2.4,5.74-6.7,5.74h-4.74v7.52h-2.11v-19.02h6.85c4.3,0,6.7,2.08,6.7,5.77ZM302.94,256.2c0-2.52-1.43-3.92-3.98-3.92h-5.3v7.81h5.3c2.55,0,3.98-1.41,3.98-3.89Z"/>
    <path class="cls-2" d="M307.21,267.12v-.17l1.29-1.05h.18c.76,1.23,2.31,2.05,3.92,2.05,1.87,0,3.19-.88,3.19-2.22,0-1.79-1.73-2.4-3.66-3.19-2.02-.85-4.01-1.76-4.01-4.07s1.93-4.01,4.86-4.01c1.93,0,3.83,1,4.77,2.46v.18l-1.29,1.05h-.18c-.73-1.11-2.08-1.84-3.4-1.84-1.61,0-2.66.79-2.66,1.96,0,1.23,1.14,1.81,2.75,2.52,2.52,1.08,4.92,1.9,4.92,4.92,0,2.46-2.08,4.1-5.15,4.1-2.31,0-4.27-1.02-5.53-2.66Z"/>
    <path class="cls-2" d="M334.04,254.98l-6.94,15.72c-1.11,2.52-1.96,3.42-3.98,3.42-.91,0-1.7-.26-2.17-.58l-.06-.18.61-1.35.18-.06c.32.23.94.44,1.4.44.94,0,1.4-.32,2.08-1.87l.82-1.84-5.88-13.7.12-.17h2.08l4.8,11.41,4.86-11.41h1.96l.12.17Z"/>
    <path class="cls-2" d="M335.56,262.12c0-4.33,3.28-7.67,7.79-7.67,2.43,0,4.62.97,5.94,2.58v.18l-1.26,1.02h-.18c-1.23-1.23-2.75-1.9-4.51-1.9-3.34,0-5.68,2.46-5.68,5.82s2.19,5.77,5.79,5.77c1.55,0,3.16-.47,4.39-1.9h.18l1.26,1.02v.17c-1.32,1.61-3.51,2.58-5.94,2.58-4.51,0-7.79-3.34-7.79-7.67Z"/>
    <path class="cls-2" d="M365.59,260.51v8.93h-2.08v-8.72c0-2.69-1.64-4.42-4.24-4.42s-4.48,1.73-4.48,4.42v8.72h-2.05v-19.7l1.9-.26.15.12v7c1.05-1.35,2.69-2.14,4.8-2.14,3.72,0,6,2.52,6,6.06Z"/>
    <path class="cls-2" d="M369.33,262.12c0-4.33,3.31-7.67,7.75-7.67s7.76,3.34,7.76,7.67-3.31,7.67-7.76,7.67-7.75-3.34-7.75-7.67ZM382.73,262.12c0-3.34-2.34-5.79-5.65-5.79s-5.65,2.46-5.65,5.79,2.34,5.79,5.65,5.79,5.65-2.46,5.65-5.79Z"/>
    <path class="cls-2" d="M388.79,249.74l1.9-.26.15.12v19.84h-2.05v-19.7Z"/>
    <path class="cls-2" d="M394.79,262.12c0-4.33,3.31-7.67,7.75-7.67s7.76,3.34,7.76,7.67-3.31,7.67-7.76,7.67-7.75-3.34-7.75-7.67ZM408.19,262.12c0-3.34-2.34-5.79-5.65-5.79s-5.65,2.46-5.65,5.79,2.34,5.79,5.65,5.79,5.65-2.46,5.65-5.79Z"/>
    <path class="cls-2" d="M427.71,254.8v12.55c0,4.74-3.42,6.76-7.14,6.76-2.87,0-5.41-1.29-6.82-3.25v-.17l1.29-1.08h.18c1.14,1.58,2.9,2.66,5.36,2.66,2.93,0,5.09-1.55,5.09-4.86v-1.32c-1.2,1.35-3.01,2.17-5.18,2.17-4.19,0-7.2-3.01-7.2-6.91s3.01-6.91,7.23-6.91c2.22,0,4.04.85,5.24,2.25v-1.9h1.96ZM425.75,261.39c0-2.96-2.14-5.06-5.21-5.06s-5.15,2.11-5.15,5.03,2.05,5.03,5.18,5.03,5.18-2.11,5.18-5Z"/>
    <path class="cls-2" d="M431.98,250.5c0-.94.76-1.7,1.7-1.7s1.7.76,1.7,1.7-.76,1.7-1.7,1.7-1.7-.76-1.7-1.7ZM432.65,254.8h2.05v14.63h-2.05v-14.63Z"/>
    <path class="cls-2" d="M440.7,262.73c.26,3.37,2.81,5.18,5.53,5.18,1.7,0,3.89-.73,5.06-2.22h.18l1.26,1.05v.18c-1.46,1.96-4.21,2.87-6.44,2.87-3.95,0-7.73-2.75-7.73-7.61,0-4.42,3.16-7.73,7.35-7.73,2.05,0,3.78.73,5.03,1.96,1.38,1.35,2.2,3.28,2.2,5.41,0,.41-.03.7-.06.91h-12.38ZM440.76,260.86h10.27c-.17-1.23-.67-2.28-1.4-3.04-.88-.97-2.17-1.49-3.72-1.49-2.78,0-4.77,1.76-5.15,4.54Z"/>
    <path class="cls-2" d="M480.67,269.35l-.06.15c-.47.23-.94.29-1.32.29-1.05,0-2.14-.44-3.01-1.29-1.29.91-2.9,1.43-4.65,1.43-4.27,0-7.75-3.19-7.75-7.11,0-2.46,1.38-4.45,3.48-5.65-.18-.32-.32-.64-.44-.94-.2-.5-.29-1.02-.29-1.61,0-2.66,1.99-4.57,5-4.57,1.93,0,3.54.79,4.8,2.28v.15l-1.32,1.17h-.15c-.82-1.08-1.93-1.79-3.37-1.73-1.79.09-2.84,1.23-2.84,2.6,0,1.55,1.38,3.01,2.69,4.65l5.03,6.26c.47-.76.73-1.64.73-2.55,0-1.38-.58-2.58-1.43-3.42v-.18l1.41-1.23h.17c1.23,1.26,1.99,2.9,1.99,4.74,0,1.61-.58,3.07-1.55,4.27.61.67,1.02.97,1.58.97.26,0,.53-.06.82-.17l.12.09.35,1.38ZM471.66,268.03c1.32,0,2.49-.41,3.42-1.08l-5.41-6.76-1.2-1.52c-1.46.94-2.46,2.49-2.46,4.24,0,2.78,2.49,5.12,5.65,5.12Z"/>
    <path class="cls-2" d="M494.34,252.28v6.61h8.4v1.87h-8.4v6.79h10.54v1.87h-12.64v-19.02h12.64v1.87h-10.54Z"/>
    <path class="cls-2" d="M521.37,260.51v8.93h-2.08v-8.72c0-2.69-1.64-4.42-4.24-4.42s-4.48,1.73-4.48,4.42v8.72h-2.08v-14.63h1.96v1.93c1.05-1.43,2.75-2.28,4.92-2.28,3.72,0,6,2.52,6,6.06Z"/>
    <path class="cls-2" d="M527.31,262.73c.26,3.37,2.81,5.18,5.53,5.18,1.7,0,3.89-.73,5.06-2.22h.18l1.26,1.05v.18c-1.46,1.96-4.21,2.87-6.44,2.87-3.95,0-7.73-2.75-7.73-7.61,0-4.42,3.16-7.73,7.35-7.73,2.05,0,3.78.73,5.03,1.96,1.38,1.35,2.2,3.28,2.2,5.41,0,.41-.03.7-.06.91h-12.38ZM527.37,260.86h10.27c-.17-1.23-.67-2.28-1.4-3.04-.88-.97-2.17-1.49-3.72-1.49-2.78,0-4.77,1.76-5.15,4.54Z"/>
    <path class="cls-2" d="M551.51,255.03l-.67,1.61-.18.09c-.44-.29-.94-.35-1.52-.35-2.14,0-3.48,2.02-3.48,4.71v8.34h-2.05v-14.63h1.96v1.96c.79-1.41,2.11-2.31,3.89-2.31.73,0,1.38.15,1.96.41l.09.17Z"/>
    <path class="cls-2" d="M567.29,254.8v12.55c0,4.74-3.42,6.76-7.14,6.76-2.87,0-5.41-1.29-6.82-3.25v-.17l1.29-1.08h.18c1.14,1.58,2.9,2.66,5.36,2.66,2.93,0,5.09-1.55,5.09-4.86v-1.32c-1.2,1.35-3.01,2.17-5.18,2.17-4.19,0-7.2-3.01-7.2-6.91s3.01-6.91,7.23-6.91c2.22,0,4.04.85,5.24,2.25v-1.9h1.96ZM565.33,261.39c0-2.96-2.14-5.06-5.21-5.06s-5.15,2.11-5.15,5.03,2.05,5.03,5.18,5.03,5.18-2.11,5.18-5Z"/>
    <path class="cls-2" d="M573.4,262.73c.26,3.37,2.81,5.18,5.53,5.18,1.7,0,3.89-.73,5.06-2.22h.18l1.26,1.05v.18c-1.46,1.96-4.21,2.87-6.44,2.87-3.95,0-7.73-2.75-7.73-7.61,0-4.42,3.16-7.73,7.35-7.73,2.05,0,3.78.73,5.03,1.96,1.38,1.35,2.2,3.28,2.2,5.41,0,.41-.03.7-.06.91h-12.38ZM573.46,260.86h10.27c-.17-1.23-.67-2.28-1.4-3.04-.88-.97-2.17-1.49-3.72-1.49-2.78,0-4.77,1.76-5.15,4.54Z"/>
    <path class="cls-2" d="M597.25,268.61l-.06.18c-.73.58-1.67,1-2.84,1-2.55,0-4.24-1.58-4.24-4.59v-8.63h-2.46v-1.76h2.46v-4.48l1.9-.26.15.12v4.62h4.59v1.76h-4.59v8.6c0,1.93.91,2.78,2.37,2.78.56,0,1.38-.23,1.84-.73l.18.06.7,1.35Z"/>
    <path class="cls-2" d="M599.59,250.5c0-.94.76-1.7,1.7-1.7s1.7.76,1.7,1.7-.76,1.7-1.7,1.7-1.7-.76-1.7-1.7ZM600.26,254.8h2.05v14.63h-2.05v-14.63Z"/>
    <path class="cls-2" d="M619.31,269.26l-.09.18h-2.28l-5.59-6.79-2.08,2.02v4.77h-2.05v-19.7l1.9-.26.15.12v12.47l7.4-7.26h2.37l.09.17-6.41,6.29,6.58,7.99Z"/>
  </g>
  <path class="cls-1" d="M371.33,223.63h-78.8c-.81,0-1.46-.66-1.46-1.46s.66-1.46,1.46-1.46h78.8c.81,0,1.46.66,1.46,1.46s-.66,1.46-1.46,1.46Z"/>
  <g>
    <path class="cls-2" d="M214.35,140.66c1.42-1.83,3.39-3.52,5.3-5.16.99-.85,1.98-1.7,2.88-2.56.06-.06.24-.27.49-.57.38-.46.7-.85.98-1.17-1.01,7.29-8.59,11.53-11.63,12.79.56-1.18,1.57-2.81,1.98-3.34M211.24,146.92s.06,0,.08,0c1.04-.04,6.97-2.29,11.14-6.97,3.05-3.42,4.45-7.28,4.13-11.48l-.03-.42-.82-.82h-.59c-.94.02-1.86.81-4.09,3.54l-.28.35c-.87.82-1.82,1.64-2.78,2.46-2,1.72-4.07,3.49-5.65,5.53h0c-.04.05-3.7,4.91-2.67,6.9.3.57.88.91,1.56.91"/>
    <path class="cls-2" d="M164.44,108.86c6.67-7.08,25.44-18.85,34.64-21.72,5.24-1.64,15.01-3.21,19.27-3.58-.94.54-2.4,1.24-4.51,2-3.49,1.28-6.92,2.37-10.23,3.42-11.17,3.55-21.72,6.91-31.66,16.41-2.44,2.33-3.78,4.46-4.97,6.33-1.44,2.29-2.72,4.31-5.71,6.52.37-2.76,1.65-7.76,3.17-9.37M159.99,122.1l.94-.59c4.73-2.98,6.41-5.64,8.18-8.45,1.16-1.83,2.36-3.73,4.57-5.85,9.52-9.09,19.33-12.21,30.68-15.82,3.34-1.06,6.79-2.16,10.33-3.45,6.63-2.41,7.13-3.97,7.31-4.56.2-.6.11-1.21-.17-1.59-1.32-2.53-22.38,2.58-23.53,2.94-9.48,2.96-28.84,15.11-35.72,22.4-2.42,2.56-4.89,12.45-3.52,14.1l.92.88Z"/>
    <path class="cls-2" d="M173.47,190.98h0c-6.06,1.53-10.19-.89-12.59-3.2-3.92-3.79-5.89-9.96-5.15-15.77.35.75.88,2,1.29,2.99.73,1.74,1.42,3.38,1.89,4.18,3.99,6.75,9.16,10.73,15.06,11.66-.17.05-.34.1-.5.14M177.12,188.71l-.3-.18h-.35c-6.09-.08-11.26-3.65-15.39-10.63-.39-.65-1.1-2.36-1.73-3.87-1.15-2.75-1.62-3.83-2.06-4.29-.49-.51-1.1-.83-1.82-.88-1.72-.12-2.15.92-2.3,2.46-.56,5.56.54,11.15,3.79,15.77.64.9,1.37,1.74,2.16,2.51,2.99,2.89,6.68,4.39,10.68,4.39,1.4,0,2.83-.18,4.29-.55,1.75-.44,3.87-1.27,4.1-2.75.06-.36.06-1.28-1.07-1.98"/>
    <path class="cls-2" d="M197,188.44l-.23.79c-.39-.42-.97-1.38-1.42-2.51-.7-1.77-1.1-3.63-1.19-5.53l-.03-.88c-.05-1.73-.1-3.51-1.18-5.25-1.55-2.49-3.96-2.82-5.64-2.85-1.42-.02-3.08-.09-4.65-.37h0c-.61-.11-1.21-.25-1.79-.43-2.33-.73-5.62-2.48-7.22-5.05-.53-.84-.88-1.82-1.25-2.84l-.38-1.03c-.33-.86-.77-1.85-1.53-2.66-1.13-1.18-2.82-1.81-4.82-1.81-.26,0-.53.01-.8.03-2.43.2-4.77.82-7.03,1.46.08-.22.16-.45.25-.67.45-1.23.93-2.51.92-4.04-.14-3-1.5-6-2.81-8.91-1.53-3.37-2.97-6.56-2.39-9.32.58-2.8,3.07-4.69,5.47-6.51l.35-.26c1.28-.97,2.6-1.97,3.73-3.22l.52-.58c1.02-1.15,2.27-2.59,3.41-2.88.36,1.52-1.04,3.69-2.06,5.28l-.61.96c-1.7,2.77-3.3,5.39-4.21,8.73-.82,3.01-1.14,6.15-.97,9.32.16,2.91,1.81,5.18,4.75,6.57,2.7,1.28,5.21.75,7.77.05,5.83-1.62,10.78-1.48,14.7.39,4.54,2.18,7.18,7.21,9.35,12.34l.3.71c1.32,3.1,2.81,6.61,2.9,9.88.09,3.7-1.07,7.47-2.2,11.12M198.62,166.45l-.3-.71c-2.36-5.58-5.28-11.09-10.58-13.63-4.5-2.16-10.05-2.34-16.47-.55-2.23.62-4.09,1.02-6.01.11-2.12-1-3.2-2.45-3.31-4.43-.16-2.9.14-5.77.88-8.51.82-2.99,2.26-5.35,3.95-8.1l.56-.88c1.27-1.97,3.01-4.67,2.39-7.24-.16-.66-.46-1.16-.9-1.5-.54-.41-1.26-.54-1.98-.38-2.07.48-3.63,2.25-4.88,3.67l-.49.56c-.98,1.07-2.14,1.96-3.38,2.9l-.35.26c-2.64,2.01-5.64,4.28-6.42,8.01-.74,3.57.94,7.29,2.56,10.88,1.22,2.69,2.48,5.47,2.59,7.92,0,1.02-.37,2.03-.77,3.11-.31.83-.61,1.67-.78,2.55-.11.6,0,1.1.38,1.5.24.24.77.62,1.68.37l.81-.23c2.49-.71,4.83-1.38,7.28-1.58,1.54-.12,2.86.24,3.59,1,.45.48.75,1.16,1.01,1.82l.36.98c.4,1.1.81,2.25,1.48,3.32,1.97,3.15,5.74,5.23,8.62,6.13.69.21,1.38.38,2.09.51,1.75.31,3.53.38,5.05.42,1.81.04,2.83.52,3.55,1.66.72,1.15.76,2.47.8,3.98l.03.93c.1,2.18.56,4.31,1.36,6.34.57,1.44,1.78,3.92,3.49,4.26.14.03.28.04.42.04.6,0,1.16-.25,1.63-.74.36-.38.5-.81.6-1.11l.28-.91c1.19-3.84,2.41-7.82,2.3-11.93-.1-3.75-1.69-7.5-3.1-10.81"/>
    <path class="cls-2" d="M186.96,162.67c-.82.04-1.6.29-2.36.54-.75.25-1.59.57-2.39.43-.7-.13-1.2-.73-1.7-1.19,0-.05-.26-.23-.3-.27-.11-.1-.22-.2-.33-.3-.22-.2-.43-.39-.65-.59-.4-.36-.78-.74-1.22-1.04-.65-.44-1.42-.77-2.15-.3-.66.42-.49,1.41-.31,2.04.28,1,.74,1.95,1.23,2.86.26.49.52.98.85,1.43.32.43.71.79,1.07,1.18,1.46,1.34,3.25,2.06,5.04,2.06.63,0,1.26-.09,1.88-.27.21-.06.41-.13.62-.22,1.04-.42,3.8-2.7,3.35-4.72-.09-.41-.56-1.81-2.63-1.67"/>
    <path class="cls-2" d="M180.48,160.66h.02c.37.16.76.23,1.15.23.64,0,1.27-.2,1.75-.6.72-.59,1.18-1.5,1.22-2.44.04-.89-.29-1.71-.91-2.32-.71-.7-1.76-.99-2.71-.8-.88.19-1.64.82-2.06,1.72-.38.8-.42,1.71-.12,2.5.3.77.89,1.37,1.67,1.7"/>
    <path class="cls-2" d="M237.95,294.06c-1.19,1.58-2.42,3.21-3.47,4.88-2.49,3.97-6.11,5.71-10.5,5.05-2.14-.33-4.2-1.07-6.36-1.85-.64-.24-1.28-.47-1.93-.69-2.01-.69-4.06-1.27-6.11-1.85-2.47-.7-5.02-1.42-7.44-2.33-5.07-1.92-8.67-4.37-10.99-7.51-1.19-1.61-1.87-3.2-2.02-4.72-.2-1.94.51-3.95,1.93-5.53,1.29-1.43,2.94-2.26,4.53-2.27,6.82-.04,12.41-1,17.81-1.92l2.02-.34c1.69-.28,3.28-.87,4.96-1.48,2.47-.9,5.02-1.84,8.25-1.97,7.43-.27,12.25,1.36,14.69,5.04.57.86.87,2.03.93,3.57.18,5.37-2.96,9.53-6.28,13.93M228.52,269c-3.63.14-6.49,1.19-9.02,2.12-1.57.58-3.05,1.12-4.51,1.36l-2.02.35c-5.3.91-10.79,1.84-17.4,1.88-2.3.02-4.63,1.15-6.39,3.11-1.9,2.11-2.83,4.83-2.57,7.48.2,1.98,1.05,3.99,2.51,5.97,2.62,3.54,6.59,6.28,12.14,8.37,2.52.95,5.12,1.68,7.64,2.4,2.01.57,4.01,1.14,5.98,1.81.63.22,1.26.44,1.89.67,2.19.79,4.45,1.61,6.84,1.98.74.11,1.46.17,2.17.17,4.45,0,8.25-2.21,10.86-6.37.99-1.59,2.19-3.17,3.34-4.71,3.44-4.56,6.99-9.27,6.79-15.53-.07-2.02-.51-3.62-1.34-4.88-2.97-4.48-8.49-6.53-16.9-6.17"/>
    <path class="cls-2" d="M241.16,234.07l-.53.09c-2.4.48-4.65,1.6-6.53,3.21-.67.57-1.32,1.25-2.01,2.07-.58.69-1.13,1.4-1.68,2.12-.46.6-.92,1.19-1.4,1.78-.33.4-.64.78-.95.86-.59.15-1.24-1.02-1.7-1.93-1.46-2.92-3.47-6.09-7.32-7.47-1.16-.41-2.33-.61-3.46-.8-.27-.05-.54-.09-.81-.14,2.41-.69,5.02-.02,7.69.78,1.03.31,2.05.63,3.3,1.05.31.1.62.2,1.06.4.39.18.87.41,1.47.45.95.06,1.69-.31,2.29-.62.2-.1.39-.21.59-.28.87-.31,1.75-.6,2.63-.86,1.54-.45,3.08-.82,4.61-1.09,1.39-.24,2.65-.26,3.73-.04.19.04.38.09.58.14-.42.08-.93.17-1.55.27M237.95,231.21c-1.61.28-3.25.67-4.88,1.15-.93.28-1.86.57-2.78.9-.3.11-.6.26-.89.41-.37.19-.79.36-.93.35-.14-.01-.36-.12-.74-.29-.39-.18-.79-.32-1.43-.52-1.04-.34-2.08-.67-3.12-.99-3.5-1.06-7.22-1.94-10.83-.12-.97.48-2.01,1.09-1.96,2.16l.24,1.02.77.3c1.26.49,2.53.7,3.76.91,1.07.18,2.09.35,3.04.69,3,1.07,4.61,3.62,5.9,6.21.48.97,1.67,3.35,3.8,3.35.26,0,.54-.04.83-.12,1.07-.29,1.71-1.06,2.24-1.7.49-.59.97-1.21,1.45-1.84.52-.68,1.05-1.36,1.6-2.02h0c.6-.72,1.17-1.3,1.74-1.79,1.54-1.33,3.4-2.25,5.38-2.65l.43-.07c3.71-.6,5.33-1.02,5.31-2.5-.03-1.77-2.67-2.57-4.24-2.89-1.4-.28-2.98-.27-4.68.03"/>
    <path class="cls-2" d="M256.66,247c-.36.66-.72,1.35-1.04,2.1-.71,1.7-.66,3.28-.62,4.8.02.44.03.9.02,1.36-.03,2.54-.86,4.53-2.45,5.91-2.09,1.81-5.51,2.56-9.39,2.05-3.65-.48-7.64-1.97-11.53-4.31-1.9-1.14-2.78-2.68-2.81-4.92,1.12-.64,4.42-1.99,5.92-2.6,1.11-.45,1.97-.81,2.22-.94,2.87-1.53,4.34-3.85,6-6.47,1.48-2.34,4.98-4.44,8.32-5,.65-.11,1.3-.15,1.96-.11,2.55.14,3.54.6,4.37,3.04.69,2.02,0,3.31-.96,5.09M218.27,263.57c-7.24,4.12-13.6,6-18.91,5.62h0c-7.33-.54-13.13-4.78-17.19-9.95,2.08-.21,4.17-.38,6.26-.53,3.18-.22,6.37-.26,9.55-.5.83-.06,1.66-.12,2.49-.17,1.23-.08,1.23-1.83,0-1.91-1.67-.11-3.34-.22-5.01-.21-1.6.01-3.2.05-4.81.11-3.03.12-6.05.37-9.06.72-.37.04-.73.1-1.09.14-1.09-1.66-2.02-3.36-2.78-5.03.58-.03,1.16-.08,1.74-.11,3.77-.17,7.54-.32,11.31-.4,3.77-.08,7.55-.04,11.32-.16.95-.03,1.89-.06,2.84-.08,1.55-.04,1.54-2.32,0-2.4-7.6-.38-15.26-.21-22.86.26-1.78.11-3.55.28-5.33.42-.64-1.77-1.11-3.58-1.45-5.4,1.71,0,3.41-.02,5.11,0,3.6.03,7.19.12,10.8.11.9,0,1.8,0,2.7,0,.51,0,.94-.44.94-.94,0-.55-.44-.9-.94-.94-1.81-.17-3.61-.34-5.42-.49-1.82-.14-3.66-.17-5.49-.24-2.69-.09-5.39-.17-8.08-.21-.62-6.07.36-12.24,2.99-18,.25-.55,1.35-2.21,2.52-3.97,6.06-9.11,7.78-12.39,6.09-13.86-.36-.31-.85-.47-1.33-.42-1.46.12-3.17,1.97-3.84,2.77-1.72,2.02-3.74,3.71-5.87,5.51-.84.7-1.67,1.4-2.48,2.12-2.6,2.29-5.76,5.46-7.21,9.62-.23.68-.45.95-.42.79-3.14-3.07-10.32-10.96-9.97-18.91,1.1.47,2.14,1.15,3.25,1.88,2.19,1.44,4.44,3.07,7.44,2.86,3.81-.09,6.75-2.51,9.21-4.77.15-.14.41-.35.73-.6,2.54-2.05,4.32-3.62,3.98-5.2-.14-.64-.52-1.14-1.08-1.4-1.28-.59-2.92.3-4.5,1.17-.41.22-.97.52-1.15.58-7.81,2.18-18.14-1.93-22.58-8.99-3.08-4.89-2.93-14.91-1.48-22.16.38-1.89.98-3.78,1.61-5.78,1.83-5.8,3.73-11.8.06-17.82-.25-.41-1-1.64-2.39-1.82-1.86-.2-2.95,1.6-3.31,2.2-1.8,3.03-3.66,6.17-4.78,9.67-3.13,9.8-2.22,20.32-1.32,30.49l.17,1.93c1.02,11.82,3.21,24.15,12.33,34.22.88.97,1.8,1.9,2.73,2.83,2.14,2.16,4.16,4.21,5.62,6.68.49.82.66,1.51.47,1.83-.31.5-1.64.25-2.7-.27-5.31-2.67-9.89-6.28-13.59-10.72-9.9-11.89-12.28-27.51-12.54-38.52-.51-17.42,4.02-34.81,12.74-48.96.09-.15.28-.39.52-.7,1.6-2.1,2.99-4.13,2.52-5.72-.2-.66-.68-1.16-1.37-1.4-.84-.3-1.76-.18-2.82.38-2.75,1.44-5.25,3.92-7.45,6.11l-1.07,1.06c-2.67,2.61-5.08,5.36-7.15,8.2-4.32,5.89-7.44,12.54-9.03,19.21-4.6,19.4,2.73,37.11,9.82,54.24,2.39,5.8,4.87,11.79,6.82,17.7.06.17.23.69.21.84-.1.02-.49,0-.93-.24-2.53-1.35-4.03-3.67-5.61-6.13l-.42-.66c-2.13-3.28-4.15-6.66-6-10.05-3.9-7.14-7.15-14.44-9.63-21.72-2.23-6.53-3.54-12.84-3.89-18.77-1.52-25.98,16.11-47.15,33.54-64.44,2.09-2.08,17.9-13.24,25.96-18.86l1.19-.83-13.82-14.95c-.72-.78-1.54-1.67-2.68-2.22-1.46-.7-3.1-.59-4.2.29-.8.64-1.31,1.7-1.39,2.89-.11,1.6.24,3.09.76,4.53-5.41-2.95-11.85-4.07-17.91-2.99-1.5.26-3.39.75-4.67,2.18-1.66,1.85-1.85,4.74-.55,7.92,1.97,4.79,5.83,8.43,9.33,11.47-.03,0-.05.02-.07.03-3.31,1.46-4.25,5.39-4.69,8.65-.29,2.15-.61,4.05-1.61,5.44-.1.14-.19.26-.27.37-.12-1,.09-2.12.31-3.29.28-1.51.57-3.06.23-4.64-.29-1.32-1.82-3.37-4.29-6.6-1.79-2.34-3.82-4.99-4.56-6.62-4.32-9.55-3.83-26.47,6.77-32.34,9.5-5.25,18.99,2.1,28.18,9.2,4.72,3.65,9.18,7.1,13.57,8.81,9.88,3.85,20.08.02,29.09-3.36,7.91-2.97,17.06-5.12,26.46-6.21,11-1.29,26.25-1.88,31.48,7.79.98,1.81,1.7,4.44,1.11,6.26-.27.81-.77,1.39-1.56,1.77-2.44,1.16-4.72-.39-7.92-2.89-1.48-1.16-2.88-2.26-4.36-2.88-5.52-2.33-12.64-.36-17.05,2.04-5.57,3.03-11.32,5.51-15.7,7.33-1.58.66-3.19,1.26-4.81,1.87-4.07,1.53-8.27,3.11-11.99,5.53-3.66,2.38-9.76,8.58-10.98,12.89-.3,1.05.13,1.64.41,1.9.81.75,1.92.35,2.29.21,1.66-.6,3.27-1.58,4.82-2.52,1.2-.73,2.33-1.42,3.46-1.94,2.83-1.29,5.91-2.5,9.13-3.59,5.46-1.84,11.44-3.38,18.83-4.85.56-.11,1.25-.37,1.95-.64.61-.23,1.75-.67,1.86-.81,0,0,.09.25-.06,1.02-.83,4.26-4.25,6.78-11.08,8.16-1.14.23-2.27.43-3.39.63-3.83.68-7.8,1.39-11.62,3.16-1,.47-2.12.93-3.26,1.4-3.71,1.53-7.92,3.27-10.44,6.09-.5.56-1.04,1.14-1.58,1.73-4.37,4.71-9.8,10.58-5.66,17.07,1.68,2.64,5.72,5.21,9.62,7.71,2.23,1.42,4.35,2.77,5.57,3.88.57.51,1.17.69,1.76.52.61-.17,1.26-.76,1.24-1.91-.03-2.07-.92-3.93-1.72-5.56-.82-1.71-1.84-3.21-2.83-4.67-2.77-4.09-4.23-6.59-1.87-10.23,2.41-3.73,10.13-8.42,14.75-9.65,1.71-.45,3.51-.78,5.41-1.11,5.55-.99,11.29-2.02,15.32-6.51,5.72-6.39,8.98-3.64,14.36.92,1.68,1.43,3.42,2.9,5.43,4.24,5.73,3.81,5.54,5.16,5.54,5.17,0,0-.47.81-4.33.95-4.67.1-9.02-4.43-12.14-7.79-2.22-2.38-3.54-3.82-5.01-3.67-1.54.16-2.91,1.18-3.93,2.99-.12.28-.25.54-.42.88-.26.54-.52,1.04-.8,1.45-1.44,2.1-4.54,2.8-7.54,3.47-.98.22-1.93.44-2.79.69-3.3.98-7.46,2.57-10.3,6.19-4.34,5.52-5.54,13.25-3.2,20.66.02.05,1.54,4.79,3.54,5.18.6.13,1.22-.1,1.63-.59l.26-.31.13-1.69c.46-5.93.9-11.54,4.07-16.58,2.41-3.83,7.17-6.71,14.55-8.82,1.66-.47,3.36-.81,5.06-1,.96-.09,1.81,1.03,2.7,2.11.7.84,1.42,1.71,2.28,2.26,1.3.82,2.74,1.55,4.27,2.33,4.77,2.43,9.7,4.95,10.51,10.01.54,3.41-.35,6.06-1.48,9.41-.57,1.68-1.21,3.58-1.72,5.78-.2.86-.41,1.7-.61,2.52-1.35,5.41-2.63,10.51.9,14.48,3.41,3.84,4.79,11.48.82,18.64-2.54,4.57-1.22,10.73-.17,15.69l.35,1.67c.13.63.3,1.24.54,2.13l.18.64c.67,2.44,1.36,4.96,1.68,7.6.13,1.11.38,3.17-.23,3.99-.18.24-.56.44-.92.6-.41.19-.84.36-1.27.51-2.06.71-4.23.97-6.53,1.25l-1.88.24c-3.49.48-6.22,1.31-8.6,2.63l-.31.18c-.15.09-.38.22-.29.27-.52-.21-1.03-.46-1.53-.71-.66-.33-1.33-.65-2.02-.91-1.36-.52-2.73-.93-4.07-1.22-3.07-.67-5.85-.69-8.27-.1-.85.21-1.62.58-2.35.93-1.82.87-2.48,1.07-3.37.21-1.74-1.68-1.85-3.91-1.99-6.48-.04-.75-.08-1.5-.16-2.24l-.06-.52-.41-.33c-.96-.77-1.83-.98-2.63-.64-1.31.57-1.44,2.25-1.54,3.6-.69,9.62,1.56,14.93,8.6,20.28,1.59,1.21,3.32,2.05,5,2.86,1.6.77,3.11,1.5,4.39,2.5,1,.78,1.84,1.84,2.73,2.96,1.33,1.68,2.81,3.56,5.07,4.56-.15,4.46-3.2,6.52-8.06,9.3M260.01,241.1c-1.27-3.72-3.47-4.57-6.63-4.75-.85-.05-1.68,0-2.51.14-3.42.58-7.85,2.7-10.13,6.29-1.44,2.27-2.67,4.22-4.95,5.44-.23.12-1,.43-1.98.83-3.57,1.46-5.42,2.27-6.4,2.87-1.7-.74-2.92-2.21-4.17-3.79-.94-1.19-1.91-2.42-3.15-3.39-1.5-1.17-3.2-1.99-4.85-2.78-1.56-.75-3.17-1.53-4.57-2.59-5.85-4.45-7.89-8.5-7.72-15.9.22,2.11.78,4.27,2.6,6.04,2.23,2.15,4.53,1.06,6.21.26.65-.31,1.27-.61,1.88-.76,2.03-.51,4.43-.47,7.12.11,1.22.27,2.47.64,3.71,1.11.62.24,1.21.53,1.8.82.56.28,1.12.55,1.69.78,1.07.43,1.99-.11,2.77-.57,2.1-1.16,4.56-1.9,7.73-2.34l1.84-.24c2.32-.28,4.73-.57,7.04-1.37.51-.18,1.02-.38,1.51-.61.64-.29,1.36-.69,1.88-1.38,1.22-1.63.92-4.15.7-5.94-.32-2.69-1.04-5.31-1.74-7.84l-.25-.92c-.15-.56-.3-1.12-.42-1.69l-.36-1.7c-.97-4.54-2.17-10.2-.09-13.94,4.76-8.57,2.75-17.18-1.14-21.55-2.64-2.97-1.62-7.04-.34-12.18.21-.83.42-1.68.62-2.56.48-2.08,1.08-3.84,1.65-5.54,1.19-3.54,2.22-6.59,1.58-10.62-1.01-6.33-6.77-9.27-11.85-11.87-1.45-.74-2.85-1.45-4.08-2.22-.52-.33-1.11-1.04-1.68-1.73-1.2-1.45-2.72-3.29-4.92-3.01-1.84.2-3.69.57-5.48,1.08-8.01,2.29-13.25,5.53-16,9.91-3.24,5.16-3.87,10.61-4.33,16.35-.33-.69-.62-1.4-.74-1.77-2.06-6.52-1-13.55,2.77-18.34,2.38-3.03,5.9-4.39,9.03-5.32.81-.24,1.7-.44,2.62-.65,3.32-.74,7.07-1.59,9.07-4.51.34-.5.67-1.11,1.03-1.86.15-.29.29-.59.36-.78.38-.68,1.03-1.51,1.78-1.61.51.16,1.92,1.67,3.05,2.88,3.2,3.44,8,8.59,13.73,8.59.12,0,.23,0,.35,0,2.55-.09,6.01-.48,6.66-2.78.59-2.09-1.43-4.55-6.57-7.96-1.89-1.26-3.57-2.68-5.2-4.06-5.4-4.58-10.5-8.9-17.87-.68-3.45,3.85-8.75,4.8-13.88,5.71-1.87.34-3.8.68-5.61,1.16-5.19,1.38-13.41,6.36-16.23,10.73-3.38,5.23-.7,9.19,1.9,13.02.94,1.38,1.9,2.81,2.65,4.35.44.9.88,1.82,1.16,2.75-1.25-.92-2.78-1.89-4.38-2.91-3.5-2.23-7.46-4.76-8.85-6.93-2.86-4.49.43-8.63,5.39-13.99.56-.6,1.1-1.19,1.62-1.77,2.13-2.39,6.05-4.01,9.51-5.43,1.19-.49,2.33-.96,3.37-1.45,3.51-1.64,7.15-2.28,10.99-2.96,1.14-.2,2.29-.41,3.45-.64,4.95-1,11.7-3.14,13.06-10.15.11-.58.46-2.35-.69-3.32-1.2-1-2.94-.34-4.49.26-.55.21-1.09.43-1.53.52-7.5,1.49-13.58,3.06-19.15,4.94-3.31,1.12-6.46,2.36-9.37,3.69-1.27.58-2.52,1.34-3.73,2.08-1.06.64-2.07,1.26-3.16,1.78,1.81-3.51,6.45-8.12,9.32-9.98,3.49-2.27,7.56-3.8,11.5-5.28,1.64-.62,3.28-1.24,4.89-1.9,4.44-1.84,10.26-4.35,15.94-7.44,4.22-2.3,10.46-3.79,14.86-1.94,1.17.49,2.44,1.49,3.78,2.54,2.91,2.28,6.53,5.12,10.57,3.19,1.4-.67,2.39-1.8,2.87-3.27.88-2.7-.1-6.03-1.3-8.24-6.65-12.3-26.52-9.98-33.99-9.1-9.6,1.12-18.95,3.32-27.06,6.35-8.58,3.22-18.31,6.87-27.29,3.37-4.05-1.58-8.37-4.92-12.95-8.46-9.38-7.25-20-15.48-30.94-9.41-12.33,6.82-12.47,25.37-7.85,35.59.85,1.89,2.89,4.55,4.85,7.12,1.54,2.01,3.64,4.76,3.82,5.59.23,1.08,0,2.32-.25,3.64-.26,1.43-.54,2.91-.28,4.42.09.52.36,2.1,1.69,2.4,1.27.33,2.28-.83,3.09-1.96,1.44-2.02,1.8-4.65,2.06-6.58.38-2.77,1.06-5.73,3.31-6.72.58-.25,1.66-.72,1.8-1.93.13-1.13-.73-1.87-1.05-2.15-3.31-2.87-7-6.3-8.79-10.64-.34-.83-1.34-3.67.09-5.28.76-.85,2.13-1.18,3.22-1.38,6.76-1.19,14.05.61,19.48,4.83l3.86,3-2.47-5.73c-.92-2.05-1.79-3.98-1.65-5.96.03-.48.2-.89.45-1.09.33-.26.96-.26,1.52.01.7.34,1.32,1.01,1.92,1.65l11.85,12.83c-4.86,3.39-22.66,15.88-25.11,18.3-17.84,17.68-35.86,39.4-34.28,66.38.36,6.15,1.71,12.69,4.02,19.44,2.53,7.4,5.83,14.84,9.81,22.11,1.89,3.45,3.94,6.88,6.1,10.21l.42.65c1.69,2.62,3.44,5.34,6.55,6.99.5.27,1.81.83,3.01.37.67-.25,1.16-.75,1.42-1.44.39-1,.06-1.97-.13-2.55-1.98-6.01-4.47-12.04-6.88-17.88-6.94-16.76-14.1-34.09-9.69-52.69,1.51-6.35,4.49-12.68,8.6-18.3,2-2.72,4.31-5.37,6.88-7.88l1.09-1.08c2.08-2.06,4.43-4.4,6.85-5.66.23-.12.4-.18.53-.22-.2.6-.88,1.66-2.04,3.18-.3.4-.54.72-.66.91-8.98,14.57-13.64,32.45-13.11,50.36.27,11.41,2.76,27.63,13.12,40.07,3.93,4.72,8.77,8.54,14.4,11.37,2.62,1.29,4.96,1.02,5.99-.69.5-.82.82-2.26-.46-4.42-1.62-2.74-3.84-4.99-6-7.17-.9-.91-1.8-1.82-2.65-2.76-8.62-9.51-10.71-21.36-11.69-32.74l-.17-1.93c-.87-9.92-1.76-20.18,1.21-29.5,1.03-3.23,2.82-6.24,4.55-9.15.56-.93.84-.98.84-.99,0,0,.18.05.54.63,3.07,5.03,1.43,10.23-.31,15.74-.63,1.98-1.27,4.02-1.68,6.05-1.19,5.96-2.14,17.72,1.82,24,4.99,7.93,16.64,12.56,25.41,10.08.45-.13.99-.42,1.67-.79.2-.11.47-.25.75-.4-.71.65-1.54,1.32-1.93,1.64-.38.3-.68.55-.86.71-2.22,2.04-4.63,4.04-7.56,4.11-2.28-.02-4.04-1.16-5.99-2.44-1.21-.8-2.47-1.62-3.87-2.19-.36-.14-1.28-.51-2.18,0-1.01.57-1.1,1.74-1.13,2.12-.66,8.84,7.3,17.65,10.74,21.02.22.22.65.64,1.28.81.66.17,2.31.28,3.3-2.58,1.25-3.6,4.13-6.47,6.49-8.55.8-.7,1.62-1.39,2.44-2.08,2.12-1.78,4.32-3.62,6.18-5.81.23-.28.51-.57.78-.83-1.22,2.54-4.13,6.92-5.72,9.31-1.52,2.29-2.4,3.62-2.72,4.32-2.78,6.08-3.84,12.6-3.24,19.02-.14,0-.28,0-.42,0-7.53,0-15.06.21-22.58.63-7.58.42-15.14,1.15-22.67,2.1-7.47.94-14.94,2.08-22.32,3.58-3.58.73-7.15,1.53-10.7,2.41-3.48.86-6.91,1.99-10.3,3.17-.85.29-1.69.59-2.53.9-.23.08-.14.42.1.36,3.48-.81,6.99-1.53,10.49-2.24,3.58-.72,7.14-1.51,10.72-2.18,7.28-1.36,14.61-2.48,21.97-3.33,7.5-.87,15.02-1.43,22.56-1.89,7.5-.46,15.01-.71,22.53-.76,1.16,0,2.32,0,3.48,0,.32,1.89.82,3.76,1.44,5.6-4.83.42-9.66.91-14.46,1.56-7.23.98-14.43,2.26-21.56,3.83-6.92,1.52-13.78,3.36-20.51,5.59-6.59,2.18-13.08,4.76-19.25,7.94-.75.39-1.5.78-2.25,1.18-.52.28-.06,1.02.46.79,6.26-2.83,12.67-5.35,19.16-7.57,6.66-2.28,13.46-4.17,20.32-5.71,7.03-1.58,14.13-2.77,21.28-3.64,5.88-.72,11.78-1.19,17.69-1.54.72,1.72,1.63,3.49,2.7,5.23-4.3.63-8.56,1.47-12.75,2.61-5.21,1.41-10.27,3.27-15.16,5.55-5.07,2.37-9.96,5.14-14.7,8.12-2.59,1.62-5.12,3.32-7.62,5.07-1.32.92-2.63,1.87-3.92,2.83-1.34.99-2.73,1.96-4.01,3.04-.65.55-1.26,1.1-1.82,1.74-.26.29.06.69.4.52,1.54-.74,2.89-1.77,4.29-2.75,1.32-.93,2.64-1.84,3.97-2.75,2.53-1.74,5.09-3.45,7.7-5.09,4.77-2.99,9.7-5.72,14.83-8.04,4.75-2.15,9.72-3.98,14.77-5.42,2.58-.73,5.19-1.36,7.82-1.88,2.58-.51,5.24-.94,7.72-1.25,4.47,6.2,11.2,11.52,19.93,12.16.51.04,1.03.06,1.56.06,5.47,0,11.78-2.02,18.78-6.01,3.14-1.79,6.53-3.78,8.22-7.14.65.95,1.47,1.79,2.6,2.47,4.18,2.52,8.51,4.13,12.5,4.65.93.12,1.83.18,2.7.18,3.51,0,6.53-.97,8.67-2.83,2.13-1.85,3.29-4.55,3.33-7.79,0-.5,0-.99-.02-1.47-.04-1.37-.08-2.56.42-3.75.28-.68.62-1.29.94-1.89,1.06-1.98,2.17-4.04,1.13-7.1"/>
    <path class="cls-2" d="M255.36,110.06c-.28.11-.58.14-.87.1-1.15-.17-2.23-.74-3.37-1.33-1.22-.64-2.47-1.29-3.95-1.56-5.16-.92-8.76-2.34-9.53-6.27-.02-.08-.02-.14-.03-.2.32.1.73.25,1.02.36.56.22,1.1.42,1.55.51,1.46.29,2.93.49,4.4.7,1.53.21,3.07.43,4.58.74,1.04.22,2.18.66,3.6,1.38,1.18.61,2.65,1.46,3.47,2.64.26.37.54.94.36,1.51-.21.66-.67,1.19-1.23,1.42M253.91,102.24c-1.02-.53-2.58-1.27-4.24-1.61-1.57-.33-3.16-.55-4.75-.77-1.42-.2-2.85-.4-4.26-.68-.33-.06-.72-.23-1.13-.38-1.26-.49-2.68-1.04-3.74-.15-1.02.86-.73,2.34-.63,2.83,1.26,6.44,8.22,7.68,11.56,8.28,1.09.2,2.13.74,3.22,1.31,1.28.67,2.6,1.36,4.17,1.59.21.03.43.05.64.05.53,0,1.05-.1,1.56-.31,1.26-.51,2.24-1.6,2.68-2.99.39-1.21.15-2.54-.69-3.73-1.15-1.64-2.95-2.7-4.39-3.44"/>
  </g>
</svg>