<?xml version="1.0" encoding="UTF-8"?>
<svg id="Ebene_1" xmlns="http://www.w3.org/2000/svg" version="1.1" viewBox="0 0 129.2 177.1">
  <!-- Generator: Adobe Illustrator 30.1.0, SVG Export Plug-In . SVG Version: 2.1.1 Build 136)  -->
  <defs>
    <style>
      .st0 {
        fill: #8a7b70;
      }

      .st1 {
        opacity: .1;
      }
    </style>
  </defs>
  <g class="st1">
    <g>
      <path class="st0" d="M96,57.8c1-1.3,2.4-2.5,3.8-3.7.7-.6,1.4-1.2,2.1-1.8,0,0,.2-.2.4-.4.3-.3.5-.6.7-.8-.7,5.2-6.2,8.3-8.4,9.2.4-.8,1.1-2,1.4-2.4M93.8,62.3s0,0,0,0c.7,0,5-1.6,8-5,2.2-2.5,3.2-5.2,3-8.2v-.3s-.6-.6-.6-.6h-.4c-.7,0-1.3.6-2.9,2.5l-.2.3c-.6.6-1.3,1.2-2,1.8-1.4,1.2-2.9,2.5-4.1,4h0s-2.7,3.5-1.9,5c.2.4.6.7,1.1.7"/>
      <path class="st0" d="M60.2,34.9c4.8-5.1,18.3-13.5,24.9-15.6,3.8-1.2,10.8-2.3,13.9-2.6-.7.4-1.7.9-3.2,1.4-2.5.9-5,1.7-7.4,2.5-8,2.6-15.6,5-22.8,11.8-1.8,1.7-2.7,3.2-3.6,4.5-1,1.6-2,3.1-4.1,4.7.3-2,1.2-5.6,2.3-6.7M57,44.4l.7-.4c3.4-2.1,4.6-4.1,5.9-6.1.8-1.3,1.7-2.7,3.3-4.2,6.8-6.5,13.9-8.8,22-11.4,2.4-.8,4.9-1.6,7.4-2.5,4.8-1.7,5.1-2.9,5.3-3.3.1-.4,0-.9-.1-1.1-.9-1.8-16.1,1.9-16.9,2.1-6.8,2.1-20.7,10.9-25.7,16.1-1.7,1.8-3.5,8.9-2.5,10.1l.7.6Z"/>
      <path class="st0" d="M66.7,93.9h0c-4.4,1.1-7.3-.6-9-2.3-2.8-2.7-4.2-7.2-3.7-11.3.3.5.6,1.4.9,2.1.5,1.2,1,2.4,1.4,3,2.9,4.8,6.6,7.7,10.8,8.4-.1,0-.2,0-.4.1M69.3,92.3h-.2c0-.1-.3-.1-.3-.1-4.4,0-8.1-2.6-11.1-7.6-.3-.5-.8-1.7-1.2-2.8-.8-2-1.2-2.8-1.5-3.1-.4-.4-.8-.6-1.3-.6-1.2,0-1.5.7-1.7,1.8-.4,4,.4,8,2.7,11.3.5.6,1,1.3,1.6,1.8,2.1,2.1,4.8,3.2,7.7,3.2s2-.1,3.1-.4c1.3-.3,2.8-.9,2.9-2,0-.3,0-.9-.8-1.4"/>
      <path class="st0" d="M83.6,92.1l-.2.6c-.3-.3-.7-1-1-1.8-.5-1.3-.8-2.6-.9-4v-.6c0-1.2,0-2.5-.9-3.8-1.1-1.8-2.8-2-4.1-2.1-1,0-2.2,0-3.3-.3h0c-.4,0-.9-.2-1.3-.3-1.7-.5-4-1.8-5.2-3.6-.4-.6-.6-1.3-.9-2l-.3-.7c-.2-.6-.6-1.3-1.1-1.9-.8-.8-2-1.3-3.5-1.3s-.4,0-.6,0c-1.7.1-3.4.6-5.1,1,0-.2.1-.3.2-.5.3-.9.7-1.8.7-2.9,0-2.2-1.1-4.3-2-6.4-1.1-2.4-2.1-4.7-1.7-6.7.4-2,2.2-3.4,3.9-4.7l.2-.2c.9-.7,1.9-1.4,2.7-2.3l.4-.4c.7-.8,1.6-1.9,2.5-2.1.3,1.1-.7,2.7-1.5,3.8l-.4.7c-1.2,2-2.4,3.9-3,6.3-.6,2.2-.8,4.4-.7,6.7.1,2.1,1.3,3.7,3.4,4.7,1.9.9,3.7.5,5.6,0,4.2-1.2,7.7-1.1,10.6.3,3.3,1.6,5.2,5.2,6.7,8.9l.2.5c.9,2.2,2,4.8,2.1,7.1,0,2.7-.8,5.4-1.6,8M84.7,76.3l-.2-.5c-1.7-4-3.8-8-7.6-9.8-3.2-1.6-7.2-1.7-11.8-.4-1.6.4-2.9.7-4.3,0-1.5-.7-2.3-1.8-2.4-3.2-.1-2.1,0-4.1.6-6.1.6-2.2,1.6-3.8,2.8-5.8l.4-.6c.9-1.4,2.2-3.4,1.7-5.2-.1-.5-.3-.8-.6-1.1-.4-.3-.9-.4-1.4-.3-1.5.3-2.6,1.6-3.5,2.6l-.4.4c-.7.8-1.5,1.4-2.4,2.1l-.3.2c-1.9,1.4-4.1,3.1-4.6,5.8-.5,2.6.7,5.2,1.8,7.8.9,1.9,1.8,3.9,1.9,5.7,0,.7-.3,1.5-.6,2.2-.2.6-.4,1.2-.6,1.8,0,.4,0,.8.3,1.1.2.2.6.4,1.2.3l.6-.2c1.8-.5,3.5-1,5.2-1.1,1.1,0,2.1.2,2.6.7.3.3.5.8.7,1.3l.3.7c.3.8.6,1.6,1.1,2.4,1.4,2.3,4.1,3.8,6.2,4.4.5.2,1,.3,1.5.4,1.3.2,2.5.3,3.6.3,1.3,0,2,.4,2.6,1.2.5.8.5,1.8.6,2.9v.7c0,1.6.4,3.1,1,4.6.4,1,1.3,2.8,2.5,3.1.1,0,.2,0,.3,0,.4,0,.8-.2,1.2-.5.3-.3.4-.6.4-.8l.2-.7c.9-2.8,1.7-5.6,1.7-8.6,0-2.7-1.2-5.4-2.2-7.8"/>
      <path class="st0" d="M76.4,73.6c-.6,0-1.2.2-1.7.4-.5.2-1.1.4-1.7.3-.5,0-.9-.5-1.2-.9,0,0-.2-.2-.2-.2,0,0-.2-.1-.2-.2-.2-.1-.3-.3-.5-.4-.3-.3-.6-.5-.9-.7-.5-.3-1-.6-1.5-.2-.5.3-.4,1-.2,1.5.2.7.5,1.4.9,2.1.2.4.4.7.6,1,.2.3.5.6.8.8,1,1,2.3,1.5,3.6,1.5s.9,0,1.3-.2c.1,0,.3,0,.4-.2.7-.3,2.7-1.9,2.4-3.4,0-.3-.4-1.3-1.9-1.2"/>
      <path class="st0" d="M71.7,72.1h0c.3.1.6.2.8.2.5,0,.9-.1,1.3-.4.5-.4.8-1.1.9-1.8,0-.6-.2-1.2-.7-1.7-.5-.5-1.3-.7-1.9-.6-.6.1-1.2.6-1.5,1.2-.3.6-.3,1.2,0,1.8.2.6.6,1,1.2,1.2"/>
      <path class="st0" d="M113,168c-.9,1.1-1.7,2.3-2.5,3.5-1.8,2.9-4.4,4.1-7.5,3.6-1.5-.2-3-.8-4.6-1.3-.5-.2-.9-.3-1.4-.5-1.4-.5-2.9-.9-4.4-1.3-1.8-.5-3.6-1-5.3-1.7-3.6-1.4-6.2-3.1-7.9-5.4-.9-1.2-1.3-2.3-1.5-3.4-.1-1.4.4-2.8,1.4-4,.9-1,2.1-1.6,3.3-1.6,4.9,0,8.9-.7,12.8-1.4l1.4-.2c1.2-.2,2.4-.6,3.6-1.1,1.8-.6,3.6-1.3,5.9-1.4,5.3-.2,8.8,1,10.6,3.6.4.6.6,1.5.7,2.6.1,3.9-2.1,6.8-4.5,10M106.2,150c-2.6.1-4.7.9-6.5,1.5-1.1.4-2.2.8-3.2,1l-1.5.2c-3.8.7-7.8,1.3-12.5,1.4-1.7,0-3.3.8-4.6,2.2-1.4,1.5-2,3.5-1.8,5.4.1,1.4.8,2.9,1.8,4.3,1.9,2.5,4.7,4.5,8.7,6,1.8.7,3.7,1.2,5.5,1.7,1.4.4,2.9.8,4.3,1.3.5.2.9.3,1.4.5,1.6.6,3.2,1.2,4.9,1.4.5,0,1.1.1,1.6.1,3.2,0,5.9-1.6,7.8-4.6.7-1.1,1.6-2.3,2.4-3.4,2.5-3.3,5-6.7,4.9-11.2,0-1.5-.4-2.6-1-3.5-2.1-3.2-6.1-4.7-12.1-4.4"/>
      <path class="st0" d="M115.3,124.9h-.4c-1.7.4-3.3,1.2-4.7,2.4-.5.4-1,.9-1.4,1.5-.4.5-.8,1-1.2,1.5-.3.4-.7.9-1,1.3-.2.3-.5.6-.7.6-.4.1-.9-.7-1.2-1.4-1-2.1-2.5-4.4-5.3-5.4-.8-.3-1.7-.4-2.5-.6-.2,0-.4,0-.6,0,1.7-.5,3.6,0,5.5.6.7.2,1.5.5,2.4.8.2,0,.4.1.8.3.3.1.6.3,1.1.3.7,0,1.2-.2,1.6-.4.1,0,.3-.1.4-.2.6-.2,1.3-.4,1.9-.6,1.1-.3,2.2-.6,3.3-.8,1-.2,1.9-.2,2.7,0,.1,0,.3,0,.4,0-.3,0-.7.1-1.1.2M113,122.8c-1.2.2-2.3.5-3.5.8-.7.2-1.3.4-2,.6-.2,0-.4.2-.6.3-.3.1-.6.3-.7.2-.1,0-.3,0-.5-.2-.3-.1-.6-.2-1-.4-.7-.2-1.5-.5-2.2-.7-2.5-.8-5.2-1.4-7.8,0-.7.3-1.4.8-1.4,1.6l.2.7.6.2c.9.4,1.8.5,2.7.7.8.1,1.5.3,2.2.5,2.2.8,3.3,2.6,4.2,4.5.3.7,1.2,2.4,2.7,2.4s.4,0,.6,0c.8-.2,1.2-.8,1.6-1.2.4-.4.7-.9,1-1.3.4-.5.8-1,1.2-1.5h0c.4-.5.8-.9,1.2-1.3,1.1-1,2.4-1.6,3.9-1.9h.3c2.7-.5,3.8-.8,3.8-1.8,0-1.3-1.9-1.8-3-2.1-1-.2-2.1-.2-3.4,0"/>
      <path class="st0" d="M126.4,134.2c-.3.5-.5,1-.7,1.5-.5,1.2-.5,2.4-.4,3.5,0,.3,0,.6,0,1,0,1.8-.6,3.3-1.8,4.2-1.5,1.3-4,1.8-6.8,1.5-2.6-.3-5.5-1.4-8.3-3.1-1.4-.8-2-1.9-2-3.5.8-.5,3.2-1.4,4.3-1.9.8-.3,1.4-.6,1.6-.7,2.1-1.1,3.1-2.8,4.3-4.6,1.1-1.7,3.6-3.2,6-3.6.5,0,.9-.1,1.4,0,1.8,0,2.5.4,3.1,2.2.5,1.5,0,2.4-.7,3.7M98.9,146.1c-5.2,3-9.8,4.3-13.6,4h0c-5.3-.4-9.4-3.4-12.4-7.2,1.5-.1,3-.3,4.5-.4,2.3-.2,4.6-.2,6.9-.4.6,0,1.2,0,1.8-.1.9,0,.9-1.3,0-1.4-1.2,0-2.4-.2-3.6-.2-1.2,0-2.3,0-3.5,0-2.2,0-4.3.3-6.5.5-.3,0-.5,0-.8.1-.8-1.2-1.5-2.4-2-3.6.4,0,.8,0,1.2,0,2.7-.1,5.4-.2,8.1-.3,2.7,0,5.4,0,8.1-.1.7,0,1.4,0,2,0,1.1,0,1.1-1.7,0-1.7-5.5-.3-11-.2-16.4.2-1.3,0-2.6.2-3.8.3-.5-1.3-.8-2.6-1-3.9,1.2,0,2.5,0,3.7,0,2.6,0,5.2,0,7.8,0,.6,0,1.3,0,1.9,0,.4,0,.7-.3.7-.7s-.3-.6-.7-.7c-1.3-.1-2.6-.2-3.9-.4-1.3-.1-2.6-.1-3.9-.2-1.9,0-3.9-.1-5.8-.1-.4-4.4.3-8.8,2.2-12.9.2-.4,1-1.6,1.8-2.9,4.4-6.5,5.6-8.9,4.4-10-.3-.2-.6-.3-1-.3-1,0-2.3,1.4-2.8,2-1.2,1.5-2.7,2.7-4.2,4-.6.5-1.2,1-1.8,1.5-1.9,1.6-4.1,3.9-5.2,6.9-.2.5-.3.7-.3.6-2.3-2.2-7.4-7.9-7.2-13.6.8.3,1.5.8,2.3,1.4,1.6,1,3.2,2.2,5.3,2.1,2.7,0,4.9-1.8,6.6-3.4.1,0,.3-.2.5-.4,1.8-1.5,3.1-2.6,2.9-3.7,0-.5-.4-.8-.8-1-.9-.4-2.1.2-3.2.8-.3.2-.7.4-.8.4-5.6,1.6-13-1.4-16.2-6.5-2.2-3.5-2.1-10.7-1.1-15.9.3-1.4.7-2.7,1.2-4.2,1.3-4.2,2.7-8.5,0-12.8-.2-.3-.7-1.2-1.7-1.3-1.3-.1-2.1,1.2-2.4,1.6-1.3,2.2-2.6,4.4-3.4,7-2.3,7-1.6,14.6-1,21.9v1.4c.9,8.5,2.4,17.4,9,24.6.6.7,1.3,1.4,2,2,1.5,1.6,3,3,4,4.8.4.6.5,1.1.3,1.3-.2.4-1.2.2-1.9-.2-3.8-1.9-7.1-4.5-9.8-7.7-7.1-8.5-8.8-19.8-9-27.7-.4-12.5,2.9-25,9.2-35.2,0-.1.2-.3.4-.5,1.1-1.5,2.2-3,1.8-4.1-.1-.5-.5-.8-1-1-.6-.2-1.3-.1-2,.3-2,1-3.8,2.8-5.4,4.4l-.8.8c-1.9,1.9-3.6,3.9-5.1,5.9-3.1,4.2-5.3,9-6.5,13.8-3.3,13.9,2,26.7,7.1,39,1.7,4.2,3.5,8.5,4.9,12.7,0,.1.2.5.2.6,0,0-.4,0-.7-.2-1.8-1-2.9-2.6-4-4.4l-.3-.5c-1.5-2.4-3-4.8-4.3-7.2-2.8-5.1-5.1-10.4-6.9-15.6-1.6-4.7-2.5-9.2-2.8-13.5-1.1-18.7,11.6-33.9,24.1-46.3,1.5-1.5,12.9-9.5,18.7-13.6l.9-.6-9.9-10.7c-.5-.6-1.1-1.2-1.9-1.6-1-.5-2.2-.4-3,.2-.6.5-.9,1.2-1,2.1,0,1.1.2,2.2.6,3.3-3.9-2.1-8.5-2.9-12.9-2.1-1.1.2-2.4.5-3.4,1.6-1.2,1.3-1.3,3.4-.4,5.7,1.4,3.4,4.2,6.1,6.7,8.2,0,0,0,0,0,0-2.4,1.1-3.1,3.9-3.4,6.2-.2,1.5-.4,2.9-1.2,3.9,0,.1-.1.2-.2.3,0-.7,0-1.5.2-2.4.2-1.1.4-2.2.2-3.3-.2-1-1.3-2.4-3.1-4.7-1.3-1.7-2.7-3.6-3.3-4.8-3.1-6.9-2.8-19,4.9-23.2,6.8-3.8,13.6,1.5,20.2,6.6,3.4,2.6,6.6,5.1,9.8,6.3,7.1,2.8,14.4,0,20.9-2.4,5.7-2.1,12.3-3.7,19-4.5,7.9-.9,18.9-1.4,22.6,5.6.7,1.3,1.2,3.2.8,4.5-.2.6-.6,1-1.1,1.3-1.8.8-3.4-.3-5.7-2.1-1.1-.8-2.1-1.6-3.1-2.1-4-1.7-9.1-.3-12.3,1.5-4,2.2-8.1,4-11.3,5.3-1.1.5-2.3.9-3.5,1.3-2.9,1.1-5.9,2.2-8.6,4-2.6,1.7-7,6.2-7.9,9.3-.2.8,0,1.2.3,1.4.6.5,1.4.3,1.6.2,1.2-.4,2.3-1.1,3.5-1.8.9-.5,1.7-1,2.5-1.4,2-.9,4.2-1.8,6.6-2.6,3.9-1.3,8.2-2.4,13.5-3.5.4,0,.9-.3,1.4-.5.4-.2,1.3-.5,1.3-.6,0,0,0,.2,0,.7-.6,3.1-3.1,4.9-8,5.9-.8.2-1.6.3-2.4.5-2.8.5-5.6,1-8.3,2.3-.7.3-1.5.7-2.3,1-2.7,1.1-5.7,2.3-7.5,4.4-.4.4-.7.8-1.1,1.2-3.1,3.4-7,7.6-4.1,12.3,1.2,1.9,4.1,3.7,6.9,5.5,1.6,1,3.1,2,4,2.8.4.4.8.5,1.3.4.4-.1.9-.5.9-1.4,0-1.5-.7-2.8-1.2-4-.6-1.2-1.3-2.3-2-3.4-2-2.9-3-4.7-1.3-7.4,1.7-2.7,7.3-6.1,10.6-6.9,1.2-.3,2.5-.6,3.9-.8,4-.7,8.1-1.4,11-4.7,4.1-4.6,6.5-2.6,10.3.7,1.2,1,2.5,2.1,3.9,3,4.1,2.7,4,3.7,4,3.7,0,0-.3.6-3.1.7-3.4,0-6.5-3.2-8.7-5.6-1.6-1.7-2.5-2.7-3.6-2.6-1.1.1-2.1.8-2.8,2.1,0,.2-.2.4-.3.6-.2.4-.4.8-.6,1-1,1.5-3.3,2-5.4,2.5-.7.2-1.4.3-2,.5-2.4.7-5.4,1.9-7.4,4.4-3.1,4-4,9.5-2.3,14.8,0,0,1.1,3.4,2.5,3.7.4,0,.9,0,1.2-.4l.2-.2v-1.2c.4-4.3.7-8.3,3-11.9,1.7-2.8,5.2-4.8,10.5-6.3,1.2-.3,2.4-.6,3.6-.7.7,0,1.3.7,1.9,1.5.5.6,1,1.2,1.6,1.6.9.6,2,1.1,3.1,1.7,3.4,1.7,7,3.6,7.6,7.2.4,2.5-.2,4.4-1.1,6.8-.4,1.2-.9,2.6-1.2,4.2-.1.6-.3,1.2-.4,1.8-1,3.9-1.9,7.6.6,10.4,2.5,2.8,3.4,8.2.6,13.4-1.8,3.3-.9,7.7-.1,11.3l.2,1.2c0,.5.2.9.4,1.5v.5c.6,1.8,1.1,3.6,1.3,5.5,0,.8.3,2.3-.2,2.9-.1.2-.4.3-.7.4-.3.1-.6.3-.9.4-1.5.5-3,.7-4.7.9l-1.4.2c-2.5.3-4.5.9-6.2,1.9h-.2c-.1.2-.3.3-.2.3-.4-.2-.7-.3-1.1-.5-.5-.2-1-.5-1.5-.7-1-.4-2-.7-2.9-.9-2.2-.5-4.2-.5-5.9,0-.6.2-1.2.4-1.7.7-1.3.6-1.8.8-2.4.2-1.2-1.2-1.3-2.8-1.4-4.7,0-.5,0-1.1-.1-1.6v-.4s-.3-.2-.3-.2c-.7-.6-1.3-.7-1.9-.5-.9.4-1,1.6-1.1,2.6-.5,6.9,1.1,10.7,6.2,14.6,1.1.9,2.4,1.5,3.6,2.1,1.1.6,2.2,1.1,3.2,1.8.7.6,1.3,1.3,2,2.1,1,1.2,2,2.6,3.6,3.3-.1,3.2-2.3,4.7-5.8,6.7M128.9,130c-.9-2.7-2.5-3.3-4.8-3.4-.6,0-1.2,0-1.8.1-2.5.4-5.6,1.9-7.3,4.5-1,1.6-1.9,3-3.6,3.9-.2,0-.7.3-1.4.6-2.6,1.1-3.9,1.6-4.6,2.1-1.2-.5-2.1-1.6-3-2.7-.7-.9-1.4-1.7-2.3-2.4-1.1-.8-2.3-1.4-3.5-2-1.1-.5-2.3-1.1-3.3-1.9-4.2-3.2-5.7-6.1-5.5-11.4.2,1.5.6,3.1,1.9,4.3,1.6,1.5,3.3.8,4.5.2.5-.2.9-.4,1.3-.5,1.5-.4,3.2-.3,5.1,0,.9.2,1.8.5,2.7.8.4.2.9.4,1.3.6.4.2.8.4,1.2.6.8.3,1.4,0,2-.4,1.5-.8,3.3-1.4,5.6-1.7l1.3-.2c1.7-.2,3.4-.4,5.1-1,.4-.1.7-.3,1.1-.4.5-.2,1-.5,1.4-1,.9-1.2.7-3,.5-4.3-.2-1.9-.7-3.8-1.2-5.6l-.2-.7c-.1-.4-.2-.8-.3-1.2l-.3-1.2c-.7-3.3-1.6-7.3,0-10,3.4-6.2,2-12.3-.8-15.5-1.9-2.1-1.2-5.1-.2-8.8.1-.6.3-1.2.4-1.8.3-1.5.8-2.8,1.2-4,.9-2.5,1.6-4.7,1.1-7.6-.7-4.5-4.9-6.7-8.5-8.5-1-.5-2.1-1-2.9-1.6-.4-.2-.8-.7-1.2-1.2-.9-1-2-2.4-3.5-2.2-1.3.1-2.7.4-3.9.8-5.8,1.6-9.5,4-11.5,7.1-2.3,3.7-2.8,7.6-3.1,11.7-.2-.5-.4-1-.5-1.3-1.5-4.7-.7-9.7,2-13.2,1.7-2.2,4.2-3.2,6.5-3.8.6-.2,1.2-.3,1.9-.5,2.4-.5,5.1-1.1,6.5-3.2.2-.4.5-.8.7-1.3.1-.2.2-.4.3-.6.3-.5.7-1.1,1.3-1.2.4.1,1.4,1.2,2.2,2.1,2.3,2.5,5.7,6.2,9.9,6.2s.2,0,.2,0c1.8,0,4.3-.3,4.8-2,.4-1.5-1-3.3-4.7-5.7-1.4-.9-2.6-1.9-3.7-2.9-3.9-3.3-7.5-6.4-12.8-.5-2.5,2.8-6.3,3.4-10,4.1-1.3.2-2.7.5-4,.8-3.7,1-9.6,4.6-11.7,7.7-2.4,3.8-.5,6.6,1.4,9.4.7,1,1.4,2,1.9,3.1.3.6.6,1.3.8,2-.9-.7-2-1.4-3.1-2.1-2.5-1.6-5.4-3.4-6.4-5-2.1-3.2.3-6.2,3.9-10.1.4-.4.8-.9,1.2-1.3,1.5-1.7,4.3-2.9,6.8-3.9.9-.4,1.7-.7,2.4-1,2.5-1.2,5.1-1.6,7.9-2.1.8-.1,1.6-.3,2.5-.5,3.6-.7,8.4-2.3,9.4-7.3,0-.4.3-1.7-.5-2.4-.9-.7-2.1-.2-3.2.2-.4.2-.8.3-1.1.4-5.4,1.1-9.8,2.2-13.8,3.5-2.4.8-4.6,1.7-6.7,2.6-.9.4-1.8,1-2.7,1.5-.8.5-1.5.9-2.3,1.3,1.3-2.5,4.6-5.8,6.7-7.2,2.5-1.6,5.4-2.7,8.3-3.8,1.2-.4,2.4-.9,3.5-1.4,3.2-1.3,7.4-3.1,11.5-5.3,3-1.7,7.5-2.7,10.7-1.4.8.4,1.8,1.1,2.7,1.8,2.1,1.6,4.7,3.7,7.6,2.3,1-.5,1.7-1.3,2.1-2.3.6-1.9,0-4.3-.9-5.9-4.8-8.8-19.1-7.2-24.4-6.5-6.9.8-13.6,2.4-19.4,4.6-6.2,2.3-13.2,4.9-19.6,2.4-2.9-1.1-6-3.5-9.3-6.1-6.7-5.2-14.4-11.1-22.2-6.8-8.9,4.9-9,18.2-5.6,25.6.6,1.4,2.1,3.3,3.5,5.1,1.1,1.4,2.6,3.4,2.7,4,.2.8,0,1.7-.2,2.6-.2,1-.4,2.1-.2,3.2,0,.4.3,1.5,1.2,1.7.9.2,1.6-.6,2.2-1.4,1-1.4,1.3-3.3,1.5-4.7.3-2,.8-4.1,2.4-4.8.4-.2,1.2-.5,1.3-1.4,0-.8-.5-1.3-.8-1.5-2.4-2.1-5-4.5-6.3-7.6-.2-.6-1-2.6,0-3.8.5-.6,1.5-.9,2.3-1,4.9-.9,10.1.4,14,3.5l2.8,2.2-1.8-4.1c-.7-1.5-1.3-2.9-1.2-4.3,0-.3.1-.6.3-.8.2-.2.7-.2,1.1,0,.5.2,1,.7,1.4,1.2l8.5,9.2c-3.5,2.4-16.3,11.4-18,13.2-12.8,12.7-25.8,28.3-24.6,47.7.3,4.4,1.2,9.1,2.9,14,1.8,5.3,4.2,10.7,7,15.9,1.4,2.5,2.8,4.9,4.4,7.3l.3.5c1.2,1.9,2.5,3.8,4.7,5,.4.2,1.3.6,2.2.3.5-.2.8-.5,1-1,.3-.7,0-1.4,0-1.8-1.4-4.3-3.2-8.7-4.9-12.8-5-12-10.1-24.5-7-37.9,1.1-4.6,3.2-9.1,6.2-13.2,1.4-2,3.1-3.9,4.9-5.7l.8-.8c1.5-1.5,3.2-3.2,4.9-4.1.2,0,.3-.1.4-.2-.1.4-.6,1.2-1.5,2.3-.2.3-.4.5-.5.7-6.5,10.5-9.8,23.3-9.4,36.2.2,8.2,2,19.9,9.4,28.8,2.8,3.4,6.3,6.1,10.4,8.2,1.9.9,3.6.7,4.3-.5.4-.6.6-1.6-.3-3.2-1.2-2-2.8-3.6-4.3-5.2-.6-.7-1.3-1.3-1.9-2-6.2-6.8-7.7-15.3-8.4-23.5v-1.4c-.7-7.1-1.4-14.5.8-21.2.7-2.3,2-4.5,3.3-6.6.4-.7.6-.7.6-.7,0,0,.1,0,.4.5,2.2,3.6,1,7.4-.2,11.3-.4,1.4-.9,2.9-1.2,4.3-.9,4.3-1.5,12.7,1.3,17.2,3.6,5.7,12,9,18.3,7.2.3,0,.7-.3,1.2-.6.1,0,.3-.2.5-.3-.5.5-1.1,1-1.4,1.2-.3.2-.5.4-.6.5-1.6,1.5-3.3,2.9-5.4,3-1.6,0-2.9-.8-4.3-1.8-.9-.6-1.8-1.2-2.8-1.6-.3-.1-.9-.4-1.6,0-.7.4-.8,1.2-.8,1.5-.5,6.4,5.2,12.7,7.7,15.1.2.2.5.5.9.6.5.1,1.7.2,2.4-1.9.9-2.6,3-4.6,4.7-6.1.6-.5,1.2-1,1.7-1.5,1.5-1.3,3.1-2.6,4.4-4.2.2-.2.4-.4.6-.6-.9,1.8-3,5-4.1,6.7-1.1,1.6-1.7,2.6-2,3.1-2,4.4-2.8,9.1-2.3,13.7-.1,0-.2,0-.3,0-5.4,0-10.8.2-16.2.5-5.4.3-10.9.8-16.3,1.5-5.4.7-10.7,1.5-16,2.6-2.6.5-5.1,1.1-7.7,1.7-2.5.6-5,1.4-7.4,2.3-.6.2-1.2.4-1.8.6-.2,0-.1.3,0,.3,2.5-.6,5-1.1,7.5-1.6,2.6-.5,5.1-1.1,7.7-1.6,5.2-1,10.5-1.8,15.8-2.4,5.4-.6,10.8-1,16.2-1.4,5.4-.3,10.8-.5,16.2-.5.8,0,1.7,0,2.5,0,.2,1.4.6,2.7,1,4-3.5.3-6.9.7-10.4,1.1-5.2.7-10.4,1.6-15.5,2.7-5,1.1-9.9,2.4-14.7,4-4.7,1.6-9.4,3.4-13.8,5.7-.5.3-1.1.6-1.6.8-.4.2,0,.7.3.6,4.5-2,9.1-3.8,13.8-5.4,4.8-1.6,9.7-3,14.6-4.1,5.1-1.1,10.2-2,15.3-2.6,4.2-.5,8.5-.9,12.7-1.1.5,1.2,1.2,2.5,1.9,3.8-3.1.4-6.2,1.1-9.2,1.9-3.7,1-7.4,2.3-10.9,4-3.6,1.7-7.2,3.7-10.6,5.8-1.9,1.2-3.7,2.4-5.5,3.6-1,.7-1.9,1.3-2.8,2-1,.7-2,1.4-2.9,2.2-.5.4-.9.8-1.3,1.2-.2.2,0,.5.3.4,1.1-.5,2.1-1.3,3.1-2,.9-.7,1.9-1.3,2.9-2,1.8-1.3,3.7-2.5,5.5-3.7,3.4-2.1,7-4.1,10.7-5.8,3.4-1.5,7-2.9,10.6-3.9,1.9-.5,3.7-1,5.6-1.4,1.9-.4,3.8-.7,5.6-.9,3.2,4.5,8.1,8.3,14.3,8.7.4,0,.7,0,1.1,0,3.9,0,8.5-1.4,13.5-4.3,2.3-1.3,4.7-2.7,5.9-5.1.5.7,1.1,1.3,1.9,1.8,3,1.8,6.1,3,9,3.3.7,0,1.3.1,1.9.1,2.5,0,4.7-.7,6.2-2,1.5-1.3,2.4-3.3,2.4-5.6,0-.4,0-.7,0-1.1,0-1,0-1.8.3-2.7.2-.5.4-.9.7-1.4.8-1.4,1.6-2.9.8-5.1"/>
      <path class="st0" d="M125.5,35.8c-.2,0-.4.1-.6,0-.8-.1-1.6-.5-2.4-1-.9-.5-1.8-.9-2.8-1.1-3.7-.7-6.3-1.7-6.8-4.5,0,0,0-.1,0-.1.2,0,.5.2.7.3.4.2.8.3,1.1.4,1,.2,2.1.4,3.2.5,1.1.2,2.2.3,3.3.5.7.2,1.6.5,2.6,1,.9.4,1.9,1,2.5,1.9.2.3.4.7.3,1.1-.2.5-.5.9-.9,1M124.5,30.2c-.7-.4-1.9-.9-3-1.2-1.1-.2-2.3-.4-3.4-.6-1-.1-2-.3-3.1-.5-.2,0-.5-.2-.8-.3-.9-.3-1.9-.7-2.7-.1-.7.6-.5,1.7-.5,2,.9,4.6,5.9,5.5,8.3,5.9.8.1,1.5.5,2.3.9.9.5,1.9,1,3,1.1.2,0,.3,0,.5,0,.4,0,.8,0,1.1-.2.9-.4,1.6-1.1,1.9-2.1.3-.9.1-1.8-.5-2.7-.8-1.2-2.1-1.9-3.2-2.5"/>
    </g>
  </g>
</svg>