<?xml version="1.0" encoding="UTF-8"?>
<svg id="Ebene_1" data-name="Ebene 1" xmlns="http://www.w3.org/2000/svg" viewBox="0 0 129.16 177.07">
  <defs>
    <style>
      .cls-1 {
        fill: #8a7b70;
      }

      .cls-2 {
        opacity: .4;
      }

      .cls-3 {
        opacity: .11;
      }
    </style>
  </defs>
  <g class="cls-2">
    <g class="cls-3">
      <g>
        <path class="cls-1" d="M96.04,57.77c1.02-1.32,2.44-2.53,3.81-3.71.71-.61,1.42-1.22,2.07-1.84.05-.04.18-.19.36-.41.27-.33.5-.61.71-.84-.72,5.24-6.17,8.29-8.36,9.19.4-.85,1.13-2.02,1.42-2.4M93.8,62.27s.04,0,.06,0c.75-.03,5.01-1.65,8.01-5.01,2.19-2.46,3.19-5.23,2.97-8.25l-.02-.3-.59-.59h-.42c-.68.02-1.34.59-2.94,2.54l-.2.25c-.62.59-1.31,1.18-2,1.77-1.44,1.23-2.93,2.51-4.06,3.97h0s-2.66,3.53-1.92,4.96c.21.41.63.65,1.12.65"/>
        <path class="cls-1" d="M60.17,34.92c4.79-5.09,18.29-13.55,24.89-15.61,3.77-1.18,10.79-2.31,13.85-2.57-.67.39-1.73.89-3.24,1.44-2.51.92-4.97,1.7-7.35,2.46-8.03,2.55-15.61,4.97-22.76,11.79-1.76,1.68-2.72,3.2-3.57,4.55-1.04,1.64-1.95,3.1-4.11,4.69.26-1.98,1.18-5.58,2.28-6.74M56.97,44.44l.68-.43c3.4-2.14,4.6-4.05,5.88-6.07.83-1.32,1.69-2.68,3.29-4.21,6.84-6.53,13.89-8.78,22.05-11.37,2.4-.76,4.88-1.55,7.43-2.48,4.76-1.73,5.12-2.85,5.26-3.28.14-.43.08-.87-.12-1.14-.95-1.82-16.08,1.85-16.91,2.11-6.81,2.13-20.73,10.86-25.67,16.1-1.74,1.84-3.51,8.94-2.53,10.13l.66.63Z"/>
        <path class="cls-1" d="M66.66,93.94h0c-4.36,1.1-7.33-.64-9.05-2.3-2.81-2.72-4.23-7.16-3.7-11.33.25.54.63,1.44.93,2.15.52,1.25,1.02,2.43,1.36,3.01,2.87,4.85,6.58,7.71,10.83,8.38-.12.04-.24.07-.36.1M69.29,92.3l-.21-.13h-.25c-4.37-.06-8.09-2.63-11.06-7.64-.28-.47-.79-1.7-1.25-2.78-.83-1.97-1.17-2.75-1.48-3.08-.35-.37-.79-.6-1.3-.63-1.24-.08-1.54.66-1.65,1.77-.4,4,.39,8.02,2.72,11.33.46.65.98,1.25,1.55,1.8,2.15,2.08,4.8,3.15,7.67,3.15,1,0,2.04-.13,3.08-.4,1.25-.31,2.78-.91,2.95-1.97.04-.26.05-.92-.77-1.42"/>
        <path class="cls-1" d="M83.57,92.11l-.16.57c-.28-.3-.7-.99-1.02-1.81-.5-1.27-.79-2.61-.85-3.97l-.02-.64c-.03-1.24-.07-2.53-.85-3.77-1.11-1.79-2.85-2.03-4.06-2.05-1.02-.02-2.21-.07-3.34-.27h0c-.44-.08-.87-.18-1.29-.31-1.67-.52-4.04-1.79-5.19-3.63-.38-.6-.63-1.3-.9-2.04l-.27-.74c-.24-.62-.55-1.33-1.1-1.91-.81-.85-2.02-1.3-3.46-1.3-.19,0-.38,0-.58.02-1.75.14-3.43.59-5.06,1.05.06-.16.12-.32.18-.48.33-.89.67-1.8.66-2.9-.1-2.15-1.07-4.31-2.02-6.4-1.1-2.42-2.14-4.71-1.72-6.7.42-2.01,2.21-3.37,3.93-4.68l.25-.19c.92-.7,1.87-1.41,2.68-2.31l.37-.42c.73-.83,1.63-1.86,2.45-2.07.26,1.09-.75,2.65-1.48,3.79l-.44.69c-1.22,1.99-2.37,3.87-3.02,6.27-.59,2.16-.82,4.42-.7,6.7.12,2.09,1.3,3.72,3.42,4.72,1.94.92,3.74.54,5.58.03,4.19-1.17,7.74-1.07,10.56.28,3.27,1.57,5.16,5.18,6.72,8.86l.22.51c.95,2.23,2.02,4.75,2.08,7.1.07,2.66-.77,5.37-1.58,7.99M84.73,76.31l-.21-.51c-1.7-4.01-3.8-7.97-7.6-9.79-3.24-1.55-7.22-1.68-11.83-.4-1.6.44-2.94.73-4.32.08-1.52-.72-2.3-1.76-2.38-3.18-.12-2.09.1-4.14.63-6.12.59-2.15,1.62-3.84,2.84-5.82l.4-.63c.91-1.42,2.16-3.36,1.72-5.2-.11-.47-.33-.83-.65-1.08-.39-.29-.91-.39-1.42-.27-1.49.34-2.61,1.62-3.51,2.64l-.35.4c-.7.77-1.54,1.41-2.43,2.09l-.25.19c-1.9,1.44-4.05,3.08-4.61,5.76-.53,2.57.67,5.24,1.84,7.82.88,1.93,1.78,3.93,1.86,5.69,0,.74-.27,1.46-.55,2.23-.22.6-.44,1.2-.56,1.83-.08.43,0,.79.27,1.07.17.18.55.45,1.2.27l.58-.16c1.79-.51,3.47-.99,5.23-1.13,1.1-.09,2.06.17,2.58.72.33.34.54.83.72,1.31l.26.71c.29.79.58,1.62,1.07,2.39,1.41,2.26,4.12,3.76,6.19,4.4.49.15.99.27,1.5.36,1.25.23,2.54.28,3.63.3,1.3.02,2.04.37,2.55,1.19.52.83.54,1.77.57,2.86l.02.67c.07,1.57.4,3.1.98,4.56.41,1.04,1.28,2.81,2.51,3.06.1.02.2.03.3.03.43,0,.83-.18,1.17-.53.26-.27.36-.59.43-.8l.2-.65c.85-2.76,1.73-5.62,1.66-8.57-.07-2.69-1.21-5.39-2.23-7.77"/>
        <path class="cls-1" d="M76.36,73.59c-.59.03-1.15.21-1.7.39-.54.18-1.14.41-1.72.31-.5-.09-.86-.53-1.22-.85,0-.04-.18-.17-.22-.19-.08-.07-.16-.14-.23-.21-.16-.14-.31-.28-.47-.42-.29-.26-.56-.53-.88-.74-.47-.31-1.02-.55-1.54-.22-.47.3-.35,1.01-.22,1.47.2.72.54,1.4.88,2.06.19.35.37.71.61,1.03.23.31.51.57.77.85,1.05.96,2.34,1.48,3.62,1.48.45,0,.91-.06,1.35-.19.15-.04.3-.1.44-.16.75-.3,2.73-1.94,2.41-3.39-.07-.3-.4-1.3-1.89-1.2"/>
        <path class="cls-1" d="M71.7,72.14h.01c.27.11.55.16.83.16.46,0,.91-.15,1.26-.43.52-.42.85-1.08.88-1.75.03-.64-.21-1.23-.65-1.67-.51-.5-1.26-.71-1.95-.57-.63.13-1.17.59-1.48,1.24-.27.57-.3,1.23-.08,1.8.21.55.64.99,1.2,1.22"/>
        <path class="cls-1" d="M113,168.01c-.85,1.13-1.74,2.3-2.49,3.51-1.79,2.86-4.39,4.1-7.55,3.63-1.54-.24-3.01-.77-4.57-1.33-.46-.17-.92-.33-1.39-.49-1.44-.5-2.92-.91-4.39-1.33-1.78-.5-3.61-1.02-5.35-1.67-3.65-1.38-6.23-3.14-7.9-5.4-.85-1.16-1.34-2.3-1.45-3.4-.14-1.39.37-2.84,1.39-3.98.92-1.03,2.11-1.62,3.25-1.63,4.9-.03,8.92-.72,12.8-1.38l1.45-.25c1.21-.2,2.36-.62,3.56-1.07,1.77-.65,3.61-1.32,5.93-1.41,5.34-.19,8.81.98,10.56,3.62.41.62.63,1.46.67,2.56.13,3.86-2.13,6.85-4.51,10.01M106.22,150c-2.61.1-4.67.86-6.48,1.52-1.13.42-2.19.81-3.24.98l-1.45.25c-3.81.65-7.75,1.33-12.5,1.35-1.66.01-3.33.82-4.6,2.23-1.36,1.52-2.04,3.48-1.85,5.37.15,1.43.75,2.87,1.8,4.29,1.88,2.54,4.74,4.51,8.72,6.01,1.81.68,3.68,1.21,5.49,1.72,1.44.41,2.88.82,4.3,1.3.45.16.91.32,1.36.48,1.57.57,3.2,1.16,4.92,1.42.53.08,1.05.12,1.56.12,3.2,0,5.93-1.59,7.8-4.58.71-1.14,1.58-2.28,2.4-3.38,2.47-3.28,5.03-6.66,4.88-11.16-.05-1.45-.36-2.6-.96-3.51-2.13-3.22-6.1-4.69-12.14-4.43"/>
        <path class="cls-1" d="M115.3,124.9l-.38.07c-1.72.35-3.34,1.15-4.69,2.31-.48.41-.95.9-1.44,1.49-.42.49-.81,1.01-1.21,1.52-.33.43-.66.86-1.01,1.28-.24.29-.46.56-.68.62-.43.11-.89-.74-1.22-1.39-1.05-2.1-2.49-4.38-5.26-5.37-.83-.29-1.67-.44-2.49-.57-.2-.03-.39-.07-.58-.1,1.73-.49,3.61-.02,5.52.56.74.22,1.47.45,2.37.75.22.07.44.14.76.29.28.13.62.29,1.06.33.68.04,1.21-.22,1.65-.45.14-.07.28-.15.43-.2.62-.22,1.26-.43,1.89-.61,1.1-.33,2.22-.59,3.31-.78,1-.17,1.9-.18,2.68-.03.14.03.28.06.42.1-.31.06-.67.12-1.11.19M113,122.85c-1.16.2-2.34.48-3.51.83-.67.2-1.34.41-2,.65-.22.08-.43.18-.64.3-.26.13-.57.26-.67.25-.1,0-.26-.08-.53-.21-.28-.13-.57-.23-1.02-.38-.74-.25-1.49-.48-2.25-.71-2.51-.76-5.19-1.39-7.78-.09-.7.35-1.44.78-1.41,1.56l.17.74.55.22c.9.35,1.82.5,2.7.65.77.13,1.5.25,2.18.5,2.15.77,3.31,2.6,4.24,4.46.35.69,1.2,2.41,2.73,2.41.19,0,.39-.03.6-.08.77-.21,1.23-.76,1.61-1.22.36-.43.7-.87,1.04-1.32.38-.49.75-.98,1.15-1.45h0c.43-.51.84-.94,1.25-1.29,1.11-.96,2.44-1.61,3.86-1.9l.31-.05c2.67-.43,3.83-.73,3.81-1.8-.02-1.27-1.91-1.84-3.05-2.07-1.01-.2-2.14-.19-3.36.02"/>
        <path class="cls-1" d="M126.44,134.2c-.25.48-.52.97-.75,1.51-.51,1.22-.48,2.35-.44,3.45.01.32.02.65.01.98-.02,1.83-.62,3.26-1.76,4.25-1.5,1.3-3.96,1.84-6.75,1.47-2.62-.34-5.49-1.42-8.28-3.1-1.36-.82-2-1.92-2.02-3.54.8-.46,3.18-1.43,4.26-1.87.8-.33,1.42-.58,1.59-.68,2.06-1.1,3.12-2.77,4.31-4.65,1.06-1.68,3.58-3.19,5.98-3.59.47-.08.93-.11,1.41-.08,1.83.1,2.54.43,3.14,2.18.49,1.45,0,2.38-.69,3.66M98.85,146.1c-5.2,2.96-9.78,4.31-13.59,4.04h0c-5.27-.39-9.43-3.44-12.36-7.15,1.5-.15,3-.27,4.5-.38,2.28-.16,4.58-.19,6.86-.36.6-.04,1.19-.08,1.79-.12.88-.06.88-1.31,0-1.37-1.2-.08-2.4-.16-3.6-.15-1.15,0-2.3.03-3.46.08-2.18.09-4.35.26-6.51.51-.26.03-.52.07-.78.1-.79-1.19-1.45-2.42-2-3.62.42-.02.83-.06,1.25-.08,2.71-.12,5.42-.23,8.13-.29,2.71-.06,5.42-.03,8.13-.12.68-.02,1.36-.04,2.04-.06,1.11-.03,1.1-1.67,0-1.73-5.46-.27-10.97-.15-16.43.18-1.28.08-2.56.2-3.83.3-.46-1.27-.8-2.57-1.04-3.88,1.23,0,2.45-.02,3.68,0,2.59.02,5.17.09,7.76.08.65,0,1.3,0,1.94,0,.37,0,.68-.31.68-.68,0-.4-.31-.64-.68-.68-1.3-.12-2.6-.25-3.89-.35-1.31-.1-2.63-.12-3.94-.17-1.93-.07-3.87-.12-5.81-.15-.44-4.36.26-8.8,2.15-12.93.18-.4.97-1.59,1.81-2.85,4.35-6.54,5.59-8.9,4.37-9.96-.26-.22-.61-.34-.96-.3-1.05.08-2.28,1.42-2.76,1.99-1.23,1.46-2.68,2.67-4.22,3.96-.6.5-1.2,1-1.78,1.52-1.87,1.65-4.14,3.92-5.18,6.92-.17.49-.32.68-.3.57-2.26-2.21-7.41-7.88-7.17-13.59.79.34,1.54.83,2.33,1.35,1.57,1.03,3.19,2.2,5.35,2.05,2.74-.06,4.85-1.81,6.62-3.43.11-.1.29-.25.52-.43,1.83-1.47,3.1-2.6,2.86-3.74-.1-.46-.38-.82-.78-1-.92-.42-2.1.22-3.24.84-.29.16-.7.38-.82.41-5.61,1.57-13.03-1.39-16.23-6.46-2.21-3.51-2.1-10.72-1.06-15.93.27-1.36.7-2.72,1.15-4.16,1.32-4.17,2.68-8.48.04-12.81-.18-.29-.72-1.18-1.72-1.31-1.34-.14-2.12,1.15-2.38,1.58-1.29,2.18-2.63,4.43-3.44,6.95-2.25,7.04-1.59,14.6-.95,21.91l.12,1.38c.73,8.5,2.31,17.36,8.86,24.59.63.7,1.29,1.37,1.96,2.04,1.54,1.55,2.99,3.02,4.04,4.8.35.59.48,1.08.34,1.31-.22.36-1.18.18-1.94-.19-3.82-1.92-7.11-4.51-9.77-7.71-7.11-8.55-8.83-19.77-9.01-27.69-.37-12.52,2.89-25.01,9.16-35.19.07-.11.2-.28.37-.51,1.15-1.51,2.15-2.96,1.81-4.11-.14-.47-.49-.83-.99-1.01-.61-.22-1.27-.13-2.03.27-1.98,1.03-3.77,2.82-5.36,4.39l-.77.76c-1.92,1.87-3.65,3.85-5.14,5.89-3.1,4.24-5.35,9.01-6.49,13.8-3.31,13.94,1.96,26.67,7.05,38.98,1.72,4.17,3.5,8.47,4.9,12.72.04.12.16.5.15.6-.07.02-.35,0-.67-.17-1.82-.97-2.9-2.64-4.04-4.4l-.31-.47c-1.53-2.35-2.98-4.78-4.31-7.22-2.81-5.13-5.13-10.38-6.92-15.61-1.61-4.69-2.54-9.23-2.79-13.49-1.09-18.67,11.57-33.89,24.1-46.31,1.51-1.49,12.86-9.52,18.66-13.55l.86-.6-9.93-10.75c-.52-.56-1.11-1.2-1.92-1.59-1.05-.51-2.23-.42-3.02.21-.58.46-.94,1.22-1,2.08-.08,1.15.18,2.22.55,3.25-3.89-2.12-8.52-2.92-12.87-2.15-1.08.19-2.44.54-3.35,1.57-1.19,1.33-1.33,3.4-.39,5.69,1.42,3.44,4.19,6.06,6.7,8.24-.02,0-.03.01-.05.02-2.38,1.05-3.05,3.87-3.37,6.22-.21,1.55-.44,2.91-1.16,3.91-.07.1-.14.19-.19.26-.08-.72.06-1.52.22-2.36.2-1.08.41-2.2.17-3.33-.21-.95-1.3-2.42-3.08-4.74-1.29-1.68-2.75-3.59-3.28-4.76-3.1-6.86-2.75-19.02,4.87-23.24,6.83-3.77,13.65,1.51,20.25,6.61,3.39,2.62,6.6,5.1,9.75,6.33,7.1,2.77,14.43.02,20.91-2.41,5.69-2.13,12.26-3.68,19.01-4.46,7.91-.93,18.86-1.35,22.62,5.6.7,1.3,1.22,3.19.8,4.5-.19.59-.56,1-1.12,1.27-1.75.83-3.39-.28-5.69-2.08-1.06-.83-2.07-1.62-3.13-2.07-3.97-1.68-9.08-.26-12.25,1.47-4,2.18-8.13,3.96-11.28,5.27-1.14.47-2.29.91-3.46,1.34-2.92,1.1-5.94,2.24-8.62,3.97-2.63,1.71-7.02,6.17-7.89,9.27-.21.75.09,1.18.29,1.37.58.54,1.38.25,1.64.15,1.19-.43,2.35-1.13,3.46-1.81.86-.52,1.67-1.02,2.49-1.39,2.04-.93,4.24-1.8,6.56-2.58,3.92-1.32,8.22-2.43,13.53-3.49.4-.08.9-.26,1.4-.46.44-.17,1.26-.48,1.33-.58,0,0,.06.18-.05.73-.6,3.07-3.05,4.88-7.96,5.86-.82.16-1.63.31-2.44.45-2.76.49-5.61,1-8.35,2.27-.72.33-1.52.66-2.35,1-2.67,1.1-5.69,2.35-7.5,4.38-.36.41-.75.82-1.14,1.24-3.14,3.39-7.04,7.61-4.07,12.26,1.21,1.9,4.11,3.75,6.91,5.54,1.61,1.02,3.12,1.99,4,2.79.41.37.84.49,1.26.38.44-.12.9-.55.89-1.37-.02-1.49-.67-2.82-1.23-3.99-.59-1.23-1.33-2.31-2.03-3.35-1.99-2.94-3.04-4.73-1.34-7.35,1.73-2.68,7.28-6.05,10.6-6.94,1.23-.33,2.52-.56,3.89-.8,3.99-.71,8.11-1.45,11.01-4.68,4.11-4.59,6.45-2.62,10.32.66,1.21,1.03,2.46,2.09,3.9,3.05,4.12,2.74,3.98,3.71,3.98,3.71,0,0-.34.58-3.11.68-3.36.07-6.48-3.18-8.72-5.6-1.59-1.71-2.54-2.75-3.6-2.63-1.11.11-2.1.85-2.82,2.15-.09.2-.18.39-.3.63-.19.39-.38.75-.58,1.04-1.03,1.51-3.26,2.01-5.42,2.49-.7.16-1.39.31-2,.49-2.37.71-5.36,1.85-7.4,4.44-3.12,3.97-3.98,9.52-2.3,14.85.01.04,1.1,3.44,2.54,3.73.43.09.88-.07,1.17-.43l.19-.22.1-1.22c.33-4.26.65-8.29,2.92-11.92,1.73-2.75,5.15-4.82,10.46-6.34,1.19-.34,2.42-.58,3.64-.72.69-.07,1.3.74,1.94,1.52.5.6,1.02,1.23,1.64,1.62.94.59,1.97,1.12,3.07,1.68,3.43,1.75,6.97,3.56,7.55,7.2.39,2.45-.25,4.36-1.06,6.77-.41,1.21-.87,2.57-1.23,4.15-.14.62-.29,1.22-.44,1.81-.97,3.89-1.89,7.55.65,10.4,2.45,2.76,3.44,8.25.59,13.4-1.82,3.28-.88,7.71-.12,11.27l.25,1.2c.09.45.21.89.39,1.53l.13.46c.48,1.75.98,3.57,1.21,5.46.09.8.27,2.28-.17,2.87-.13.17-.4.32-.66.43-.3.14-.6.26-.91.37-1.48.51-3.04.7-4.69.9l-1.36.17c-2.5.34-4.47.94-6.18,1.89l-.22.13c-.11.06-.27.16-.21.19-.38-.15-.74-.33-1.1-.51-.48-.24-.95-.47-1.45-.66-.97-.37-1.96-.67-2.93-.87-2.21-.48-4.21-.5-5.94-.07-.61.15-1.16.41-1.69.67-1.31.62-1.78.77-2.42.15-1.25-1.21-1.33-2.81-1.43-4.66-.03-.54-.06-1.08-.12-1.61l-.04-.37-.29-.24c-.69-.55-1.32-.71-1.89-.46-.95.41-1.03,1.62-1.1,2.59-.5,6.91,1.12,10.73,6.18,14.58,1.15.87,2.39,1.47,3.59,2.05,1.15.56,2.23,1.08,3.16,1.8.72.56,1.32,1.32,1.96,2.13.95,1.21,2.02,2.56,3.64,3.28-.11,3.2-2.3,4.69-5.79,6.68M128.85,129.95c-.91-2.67-2.5-3.29-4.76-3.41-.61-.04-1.21,0-1.81.1-2.46.42-5.64,1.94-7.28,4.52-1.03,1.63-1.92,3.03-3.56,3.91-.16.09-.72.31-1.42.6-2.57,1.05-3.9,1.63-4.6,2.06-1.22-.54-2.1-1.59-3-2.72-.68-.86-1.38-1.74-2.27-2.44-1.08-.84-2.3-1.43-3.49-2-1.12-.54-2.28-1.1-3.28-1.86-4.2-3.2-5.67-6.11-5.55-11.43.16,1.51.56,3.07,1.87,4.34,1.6,1.55,3.25.76,4.46.18.47-.22.91-.44,1.35-.55,1.46-.36,3.18-.34,5.12.08.88.19,1.78.46,2.67.8.45.17.87.38,1.29.59.4.2.8.39,1.21.56.77.31,1.43-.08,1.99-.41,1.51-.83,3.28-1.37,5.56-1.68l1.33-.17c1.67-.2,3.4-.41,5.06-.98.37-.13.73-.27,1.09-.44.46-.21.98-.49,1.35-.99.88-1.17.66-2.98.51-4.27-.23-1.93-.75-3.81-1.25-5.63l-.18-.66c-.11-.4-.22-.8-.3-1.21l-.26-1.22c-.69-3.26-1.56-7.33-.06-10.01,3.42-6.16,1.98-12.34-.82-15.48-1.89-2.13-1.17-5.06-.24-8.76.15-.6.3-1.21.45-1.84.35-1.49.77-2.76,1.19-3.98.86-2.54,1.6-4.74,1.13-7.64-.73-4.55-4.87-6.66-8.52-8.53-1.04-.53-2.05-1.04-2.93-1.6-.38-.24-.8-.75-1.2-1.24-.86-1.04-1.95-2.36-3.54-2.17-1.32.15-2.65.41-3.93.77-5.76,1.64-9.52,3.97-11.5,7.12-2.33,3.71-2.78,7.62-3.11,11.75-.24-.49-.45-1-.53-1.27-1.48-4.69-.72-9.74,1.99-13.18,1.71-2.18,4.24-3.16,6.49-3.82.58-.17,1.22-.32,1.89-.47,2.38-.53,5.08-1.14,6.52-3.24.25-.36.48-.8.74-1.33.1-.21.21-.42.26-.56.28-.49.74-1.08,1.28-1.15.37.11,1.38,1.2,2.19,2.07,2.3,2.47,5.75,6.18,9.87,6.18.08,0,.17,0,.25,0,1.83-.07,4.32-.35,4.79-2,.42-1.5-1.03-3.27-4.72-5.72-1.36-.9-2.57-1.93-3.74-2.92-3.88-3.29-7.55-6.39-12.84-.49-2.48,2.77-6.29,3.45-9.98,4.1-1.34.24-2.73.49-4.03.83-3.73.99-9.64,4.57-11.66,7.71-2.43,3.76-.5,6.6,1.36,9.36.67.99,1.37,2.02,1.9,3.12.31.65.63,1.31.84,1.97-.9-.66-2-1.36-3.15-2.09-2.51-1.6-5.36-3.42-6.36-4.98-2.06-3.23.31-6.2,3.87-10.05.4-.43.79-.86,1.16-1.27,1.53-1.72,4.35-2.88,6.83-3.91.85-.35,1.68-.69,2.42-1.04,2.52-1.18,5.13-1.64,7.9-2.13.82-.15,1.65-.29,2.48-.46,3.56-.72,8.4-2.25,9.39-7.3.08-.42.33-1.69-.5-2.38-.87-.72-2.12-.24-3.23.19-.4.15-.78.31-1.1.37-5.39,1.07-9.76,2.2-13.76,3.55-2.38.81-4.64,1.69-6.74,2.65-.91.42-1.81.96-2.68,1.49-.76.46-1.49.91-2.27,1.28,1.3-2.52,4.63-5.83,6.7-7.17,2.51-1.63,5.44-2.73,8.27-3.8,1.18-.44,2.36-.89,3.51-1.37,3.19-1.32,7.37-3.13,11.45-5.35,3.03-1.66,7.52-2.72,10.68-1.39.84.36,1.75,1.07,2.72,1.83,2.09,1.63,4.69,3.68,7.6,2.29,1.01-.48,1.72-1.3,2.06-2.35.63-1.94-.07-4.33-.93-5.92-4.78-8.84-19.06-7.17-24.43-6.54-6.9.81-13.62,2.38-19.44,4.57-6.17,2.31-13.16,4.94-19.61,2.42-2.91-1.14-6.02-3.54-9.31-6.08-6.74-5.21-14.37-11.12-22.24-6.76-8.86,4.9-8.96,18.23-5.64,25.58.61,1.36,2.07,3.27,3.49,5.11,1.1,1.44,2.62,3.42,2.75,4.02.17.78,0,1.67-.18,2.62-.19,1.03-.39,2.09-.2,3.17.06.37.26,1.51,1.22,1.73.91.24,1.64-.6,2.22-1.41,1.04-1.45,1.29-3.34,1.48-4.73.27-1.99.76-4.12,2.38-4.83.41-.18,1.19-.52,1.29-1.39.1-.81-.52-1.35-.76-1.55-2.38-2.06-5.03-4.52-6.31-7.65-.25-.6-.96-2.64.07-3.79.55-.61,1.53-.85,2.32-.99,4.86-.85,10.1.44,14,3.47l2.78,2.16-1.77-4.12c-.66-1.47-1.28-2.86-1.19-4.29.02-.35.14-.64.32-.78.24-.19.69-.18,1.09,0,.5.24.95.73,1.38,1.19l8.52,9.22c-3.49,2.44-16.29,11.41-18.04,13.15-12.82,12.71-25.77,28.32-24.64,47.71.26,4.42,1.23,9.12,2.89,13.97,1.82,5.32,4.19,10.67,7.05,15.89,1.35,2.48,2.83,4.94,4.38,7.34l.3.47c1.22,1.88,2.47,3.84,4.71,5.03.36.19,1.3.6,2.16.27.48-.18.83-.54,1.02-1.04.28-.72.05-1.42-.09-1.83-1.42-4.32-3.21-8.65-4.95-12.85-4.98-12.04-10.13-24.5-6.97-37.87,1.08-4.56,3.22-9.11,6.18-13.15,1.43-1.95,3.1-3.86,4.95-5.66l.78-.77c1.49-1.48,3.18-3.16,4.92-4.07.17-.09.29-.13.38-.16-.14.43-.64,1.2-1.47,2.29-.22.28-.39.51-.47.65-6.45,10.47-9.8,23.32-9.43,36.19.19,8.2,1.99,19.85,9.43,28.8,2.82,3.39,6.3,6.14,10.35,8.17,1.88.93,3.56.73,4.31-.5.36-.59.59-1.62-.33-3.17-1.16-1.97-2.76-3.59-4.31-5.15-.65-.65-1.29-1.3-1.9-1.98-6.19-6.84-7.7-15.35-8.4-23.53l-.12-1.39c-.62-7.13-1.27-14.51.87-21.2.74-2.32,2.03-4.49,3.27-6.57.4-.67.6-.71.6-.71,0,0,.13.04.39.45,2.21,3.62,1.03,7.35-.22,11.31-.45,1.42-.91,2.89-1.21,4.35-.85,4.28-1.54,12.73,1.31,17.25,3.59,5.7,11.96,9.03,18.26,7.24.32-.09.71-.3,1.2-.57.14-.08.34-.18.54-.29-.51.47-1.11.95-1.39,1.18-.27.22-.49.39-.61.51-1.59,1.47-3.33,2.9-5.43,2.95-1.64-.01-2.91-.83-4.31-1.76-.87-.57-1.77-1.17-2.78-1.57-.26-.1-.92-.36-1.57,0-.73.41-.79,1.25-.81,1.52-.47,6.35,5.24,12.68,7.72,15.1.16.16.47.46.92.58.47.12,1.66.2,2.37-1.86.9-2.59,2.97-4.65,4.67-6.15.57-.51,1.16-1,1.75-1.49,1.53-1.28,3.1-2.6,4.44-4.17.17-.2.37-.41.56-.6-.88,1.82-2.97,4.97-4.11,6.69-1.1,1.64-1.73,2.6-1.95,3.1-2,4.37-2.76,9.05-2.33,13.67-.1,0-.2,0-.3,0-5.41,0-10.82.15-16.22.45-5.44.3-10.88.83-16.29,1.51-5.37.67-10.73,1.49-16.04,2.57-2.58.53-5.14,1.1-7.69,1.73-2.5.62-4.97,1.43-7.4,2.28-.61.21-1.21.43-1.82.64-.16.06-.1.3.07.26,2.5-.58,5.02-1.1,7.54-1.61,2.57-.51,5.13-1.08,7.71-1.56,5.23-.98,10.5-1.78,15.79-2.39,5.39-.62,10.8-1.02,16.21-1.36,5.39-.33,10.79-.51,16.19-.54.83,0,1.67,0,2.5,0,.23,1.36.59,2.7,1.04,4.03-3.47.3-6.94.65-10.39,1.12-5.2.71-10.37,1.63-15.49,2.75-4.98,1.09-9.91,2.41-14.74,4.02-4.74,1.57-9.4,3.42-13.84,5.71-.54.28-1.08.56-1.61.85-.38.2-.05.74.33.57,4.5-2.03,9.1-3.84,13.77-5.44,4.79-1.64,9.67-2.99,14.61-4.1,5.05-1.13,10.15-1.99,15.29-2.61,4.22-.51,8.47-.85,12.71-1.11.52,1.24,1.17,2.51,1.94,3.76-3.09.45-6.15,1.06-9.16,1.88-3.74,1.02-7.38,2.35-10.89,3.99-3.65,1.7-7.16,3.7-10.56,5.84-1.86,1.17-3.68,2.39-5.48,3.64-.95.66-1.89,1.34-2.82,2.03-.96.72-1.96,1.41-2.88,2.18-.47.39-.91.79-1.31,1.25-.18.21.04.49.29.38,1.11-.53,2.08-1.27,3.08-1.98.94-.67,1.9-1.32,2.85-1.98,1.82-1.25,3.66-2.48,5.53-3.65,3.43-2.15,6.97-4.11,10.66-5.78,3.41-1.54,6.99-2.86,10.61-3.89,1.86-.53,3.73-.98,5.62-1.35,1.85-.37,3.77-.67,5.55-.9,3.22,4.46,8.05,8.28,14.32,8.74.37.03.74.04,1.12.04,3.93,0,8.47-1.45,13.5-4.32,2.25-1.29,4.69-2.72,5.91-5.13.47.68,1.06,1.29,1.87,1.78,3.01,1.81,6.11,2.97,8.99,3.34.67.09,1.32.13,1.94.13,2.53,0,4.7-.7,6.23-2.03,1.53-1.33,2.36-3.27,2.39-5.6,0-.36,0-.71-.02-1.06-.03-.99-.05-1.84.3-2.69.2-.49.44-.93.67-1.36.76-1.43,1.56-2.9.81-5.1"/>
        <path class="cls-1" d="M125.51,35.78c-.2.08-.42.1-.63.07-.82-.12-1.6-.53-2.42-.96-.87-.46-1.78-.93-2.83-1.12-3.71-.66-6.3-1.68-6.85-4.51-.01-.06-.02-.1-.02-.15.23.07.53.18.73.26.4.15.79.3,1.11.36,1.05.21,2.11.35,3.17.5,1.1.15,2.2.31,3.29.53.75.15,1.57.47,2.59,1,.85.44,1.9,1.05,2.5,1.9.19.27.39.67.25,1.08-.15.48-.48.86-.88,1.02M124.47,30.16c-.74-.38-1.85-.91-3.05-1.16-1.13-.24-2.27-.39-3.41-.55-1.02-.14-2.05-.28-3.06-.49-.23-.05-.52-.16-.81-.28-.9-.35-1.92-.74-2.69-.11-.73.61-.52,1.68-.45,2.03.9,4.63,5.91,5.52,8.31,5.95.79.14,1.53.53,2.32.94.92.48,1.87.98,2.99,1.14.15.02.31.04.46.04.38,0,.76-.07,1.12-.22.9-.37,1.61-1.15,1.93-2.15.28-.87.11-1.82-.49-2.68-.82-1.18-2.12-1.94-3.16-2.47"/>
      </g>
    </g>
  </g>
</svg>